<svg width="81" height="80" viewBox="0 0 81 80" fill="none" xmlns="http://www.w3.org/2000/svg">
<g filter="url(#filter0_d)">
<rect x="4.5" width="72" height="72" rx="36" fill="white"/>
<g clip-path="url(#clip0)">
<path d="M35.0431 42.6624C34.5024 42.1193 34.7843 42.2724 33.4801 41.9218C32.8884 41.7624 32.3682 41.4562 31.8978 41.0893L29.0748 48.0418C28.8016 48.7149 29.3119 49.4462 30.0349 49.4187L33.3134 49.2931L35.5683 51.6856C36.0661 52.2131 36.9397 52.0487 37.2128 51.3756L40.4515 43.3993C39.777 43.7768 39.0285 43.9981 38.2544 43.9981C37.0411 43.9981 35.9012 43.5237 35.0431 42.6624ZM52.8188 48.0418L49.9958 41.0893C49.5254 41.4568 49.0052 41.7624 48.4135 41.9218C47.1024 42.2743 47.3899 42.1206 46.8504 42.6624C45.9924 43.5237 44.8519 43.9981 43.6385 43.9981C42.8645 43.9981 42.1159 43.7762 41.4415 43.3993L44.6801 51.3756C44.9533 52.0487 45.8275 52.2131 46.3247 51.6856L48.5802 49.2931L51.8587 49.4187C52.5817 49.4462 53.0919 48.7143 52.8188 48.0418ZM45.3646 41.2481C46.3153 40.2762 46.4242 40.3599 47.7782 39.9893C48.6424 39.7524 49.3182 39.0618 49.5496 38.1781C50.0151 36.4031 49.8944 36.6174 51.1643 35.3187C51.7971 34.6718 52.0441 33.7287 51.8127 32.8449C51.3479 31.0712 51.3472 31.3187 51.8127 29.5431C52.0441 28.6593 51.7971 27.7162 51.1643 27.0693C49.8944 25.7706 50.0151 25.9843 49.5496 24.2099C49.3182 23.3262 48.6424 22.6356 47.7782 22.3987C46.0434 21.9231 46.2525 22.0474 44.9813 20.7481C44.3485 20.1012 43.4257 19.8481 42.5615 20.0849C40.8273 20.5599 41.0694 20.5606 39.3321 20.0849C38.4679 19.8481 37.5451 20.1006 36.9123 20.7481C35.6423 22.0468 35.8514 21.9231 34.116 22.3987C33.2518 22.6356 32.576 23.3262 32.3446 24.2099C31.8798 25.9843 31.9999 25.7706 30.7299 27.0693C30.0971 27.7162 29.8495 28.6593 30.0815 29.5431C30.5463 31.3156 30.547 31.0681 30.0815 32.8443C29.8501 33.7281 30.0971 34.6712 30.7299 35.3187C31.9999 36.6174 31.8791 36.4031 32.3446 38.1781C32.576 39.0618 33.2518 39.7524 34.116 39.9893C35.5086 40.3706 35.6125 40.3106 36.529 41.2481C37.3522 42.0899 38.6346 42.2406 39.6239 41.6118C40.0196 41.3595 40.4785 41.2256 40.9471 41.2256C41.4157 41.2256 41.8746 41.3595 42.2703 41.6118C43.259 42.2406 44.5414 42.0899 45.3646 41.2481ZM35.0767 30.9956C35.0767 27.6812 37.705 24.9943 40.9468 24.9943C44.1886 24.9943 46.8168 27.6812 46.8168 30.9956C46.8168 34.3099 44.1886 36.9968 40.9468 36.9968C37.705 36.9968 35.0767 34.3099 35.0767 30.9956Z" fill="#00A0C1"/>
</g>
</g>
<defs>
<filter id="filter0_d" x="0.5" y="0" width="80" height="80" filterUnits="userSpaceOnUse" color-interpolation-filters="sRGB">
<feFlood flood-opacity="0" result="BackgroundImageFix"/>
<feColorMatrix in="SourceAlpha" type="matrix" values="0 0 0 0 0 0 0 0 0 0 0 0 0 0 0 0 0 0 127 0"/>
<feOffset dy="4"/>
<feGaussianBlur stdDeviation="2"/>
<feColorMatrix type="matrix" values="0 0 0 0 0 0 0 0 0 0 0 0 0 0 0 0 0 0 0.25 0"/>
<feBlend mode="normal" in2="BackgroundImageFix" result="effect1_dropShadow"/>
<feBlend mode="normal" in="SourceGraphic" in2="effect1_dropShadow" result="shape"/>
</filter>
<clipPath id="clip0">
<rect width="23.8933" height="32" fill="white" transform="translate(29 20)"/>
</clipPath>
</defs>
</svg>
