<svg width="329" height="385" viewBox="0 0 329 385" fill="none" xmlns="http://www.w3.org/2000/svg">
<g clip-path="url(#clip0)">
<rect width="328" height="385" rx="10" fill="#D9EDFF"/>
<rect x="33.5" y="30" width="72" height="72" rx="36" fill="white"/>
<g clip-path="url(#clip1)">
<path d="M64.0431 72.6624C63.5024 72.1193 63.7843 72.2724 62.4801 71.9218C61.8884 71.7624 61.3682 71.4562 60.8978 71.0893L58.0748 78.0418C57.8016 78.7149 58.3119 79.4462 59.0349 79.4187L62.3134 79.2931L64.5683 81.6856C65.0661 82.2131 65.9397 82.0487 66.2128 81.3756L69.4515 73.3993C68.777 73.7768 68.0285 73.9981 67.2544 73.9981C66.0411 73.9981 64.9012 73.5237 64.0431 72.6624ZM81.8188 78.0418L78.9958 71.0893C78.5254 71.4568 78.0052 71.7624 77.4135 71.9218C76.1024 72.2743 76.3899 72.1206 75.8504 72.6624C74.9924 73.5237 73.8519 73.9981 72.6385 73.9981C71.8645 73.9981 71.1159 73.7762 70.4415 73.3993L73.6801 81.3756C73.9533 82.0487 74.8275 82.2131 75.3247 81.6856L77.5802 79.2931L80.8587 79.4187C81.5817 79.4462 82.0919 78.7143 81.8188 78.0418ZM74.3646 71.2481C75.3153 70.2762 75.4242 70.3599 76.7782 69.9893C77.6424 69.7524 78.3182 69.0618 78.5496 68.1781C79.0151 66.4031 78.8944 66.6174 80.1643 65.3187C80.7971 64.6718 81.0441 63.7287 80.8127 62.8449C80.3479 61.0712 80.3472 61.3187 80.8127 59.5431C81.0441 58.6593 80.7971 57.7162 80.1643 57.0693C78.8944 55.7706 79.0151 55.9843 78.5496 54.2099C78.3182 53.3262 77.6424 52.6356 76.7782 52.3987C75.0434 51.9231 75.2525 52.0474 73.9813 50.7481C73.3485 50.1012 72.4257 49.8481 71.5615 50.0849C69.8273 50.5599 70.0694 50.5606 68.3321 50.0849C67.4679 49.8481 66.5451 50.1006 65.9123 50.7481C64.6423 52.0468 64.8514 51.9231 63.116 52.3987C62.2518 52.6356 61.576 53.3262 61.3446 54.2099C60.8798 55.9843 60.9999 55.7706 59.7299 57.0693C59.0971 57.7162 58.8495 58.6593 59.0815 59.5431C59.5463 61.3156 59.547 61.0681 59.0815 62.8443C58.8501 63.7281 59.0971 64.6712 59.7299 65.3187C60.9999 66.6174 60.8791 66.4031 61.3446 68.1781C61.576 69.0618 62.2518 69.7524 63.116 69.9893C64.5086 70.3706 64.6125 70.3106 65.529 71.2481C66.3522 72.0899 67.6346 72.2406 68.6239 71.6118C69.0196 71.3595 69.4785 71.2256 69.9471 71.2256C70.4157 71.2256 70.8746 71.3595 71.2703 71.6118C72.259 72.2406 73.5414 72.0899 74.3646 71.2481ZM64.0767 60.9956C64.0767 57.6812 66.705 54.9943 69.9468 54.9943C73.1886 54.9943 75.8168 57.6812 75.8168 60.9956C75.8168 64.3099 73.1886 66.9968 69.9468 66.9968C66.705 66.9968 64.0767 64.3099 64.0767 60.9956Z" fill="#00A0C1"/>
</g>
<path d="M129.7 60.816H132.196V72H129.7L124.372 64.992V72H121.876V60.816H124.212L129.7 68.016V60.816ZM142.126 72H139.87V70.96C139.251 71.7387 138.483 72.128 137.566 72.128C136.659 72.128 135.897 71.8667 135.278 71.344C134.659 70.8107 134.35 70.1067 134.35 69.232C134.35 68.3467 134.67 67.6853 135.31 67.248C135.95 66.8107 136.825 66.592 137.934 66.592H139.726V66.544C139.726 65.6267 139.241 65.168 138.27 65.168C137.854 65.168 137.411 65.2533 136.942 65.424C136.483 65.584 136.094 65.7867 135.774 66.032L134.702 64.48C135.833 63.6587 137.123 63.248 138.574 63.248C139.619 63.248 140.473 63.5093 141.134 64.032C141.795 64.5547 142.126 65.3813 142.126 66.512V72ZM139.71 68.72V68.304H138.206C137.246 68.304 136.766 68.6027 136.766 69.2C136.766 69.5093 136.878 69.7493 137.102 69.92C137.337 70.08 137.667 70.16 138.094 70.16C138.521 70.16 138.894 70.032 139.214 69.776C139.545 69.5093 139.71 69.1573 139.71 68.72ZM147.184 65.12V68.976C147.184 69.3067 147.27 69.568 147.44 69.76C147.611 69.9413 147.814 70.032 148.048 70.032C148.496 70.032 148.875 69.8293 149.184 69.424L150.08 71.104C149.334 71.7867 148.544 72.128 147.712 72.128C146.891 72.128 146.192 71.856 145.616 71.312C145.051 70.768 144.768 70.0267 144.768 69.088V65.12H143.76V63.392H144.768V60.816H147.184V63.392H149.264V65.12H147.184ZM153.867 72H151.467V63.392H153.867V72ZM151.659 62.304C151.393 62.0267 151.259 61.6907 151.259 61.296C151.259 60.9013 151.393 60.5707 151.659 60.304C151.937 60.0267 152.273 59.888 152.667 59.888C153.062 59.888 153.393 60.0267 153.659 60.304C153.937 60.5707 154.075 60.9013 154.075 61.296C154.075 61.6907 153.937 62.0267 153.659 62.304C153.393 62.5707 153.062 62.704 152.667 62.704C152.273 62.704 151.937 62.5707 151.659 62.304ZM158.159 67.696C158.159 68.4 158.356 68.976 158.751 69.424C159.156 69.8613 159.668 70.08 160.287 70.08C160.916 70.08 161.428 69.8613 161.823 69.424C162.228 68.976 162.431 68.4 162.431 67.696C162.431 66.992 162.228 66.416 161.823 65.968C161.428 65.52 160.916 65.296 160.287 65.296C159.668 65.296 159.156 65.52 158.751 65.968C158.356 66.416 158.159 66.992 158.159 67.696ZM164.847 67.696C164.847 68.944 164.415 69.9947 163.551 70.848C162.687 71.7013 161.599 72.128 160.287 72.128C158.986 72.128 157.903 71.7013 157.039 70.848C156.175 69.9947 155.743 68.944 155.743 67.696C155.743 66.448 156.175 65.3973 157.039 64.544C157.903 63.68 158.986 63.248 160.287 63.248C161.599 63.248 162.687 63.68 163.551 64.544C164.415 65.3973 164.847 66.448 164.847 67.696ZM169.13 67.2V72H166.73V63.392H169.13V64.352C169.855 63.616 170.671 63.248 171.578 63.248C172.484 63.248 173.242 63.568 173.85 64.208C174.468 64.848 174.778 65.7013 174.778 66.768V72H172.378V67.136C172.378 65.8133 171.892 65.152 170.922 65.152C170.442 65.152 170.02 65.328 169.658 65.68C169.306 66.0213 169.13 66.528 169.13 67.2ZM184.36 72H182.104V70.96C181.486 71.7387 180.718 72.128 179.8 72.128C178.894 72.128 178.131 71.8667 177.512 71.344C176.894 70.8107 176.584 70.1067 176.584 69.232C176.584 68.3467 176.904 67.6853 177.544 67.248C178.184 66.8107 179.059 66.592 180.168 66.592H181.96V66.544C181.96 65.6267 181.475 65.168 180.504 65.168C180.088 65.168 179.646 65.2533 179.176 65.424C178.718 65.584 178.328 65.7867 178.008 66.032L176.936 64.48C178.067 63.6587 179.358 63.248 180.808 63.248C181.854 63.248 182.707 63.5093 183.368 64.032C184.03 64.5547 184.36 65.3813 184.36 66.512V72ZM181.944 68.72V68.304H180.44C179.48 68.304 179 68.6027 179 69.2C179 69.5093 179.112 69.7493 179.336 69.92C179.571 70.08 179.902 70.16 180.328 70.16C180.755 70.16 181.128 70.032 181.448 69.776C181.779 69.5093 181.944 69.1573 181.944 68.72ZM189.048 72H186.648V60.128H189.048V72ZM198.603 65.12V68.976C198.603 69.3067 198.688 69.568 198.859 69.76C199.03 69.9413 199.232 70.032 199.467 70.032C199.915 70.032 200.294 69.8293 200.603 69.424L201.499 71.104C200.752 71.7867 199.963 72.128 199.131 72.128C198.31 72.128 197.611 71.856 197.035 71.312C196.47 70.768 196.187 70.0267 196.187 69.088V65.12H195.179V63.392H196.187V60.816H198.603V63.392H200.683V65.12H198.603ZM204.712 67.696C204.712 68.4 204.91 68.976 205.304 69.424C205.71 69.8613 206.222 70.08 206.84 70.08C207.47 70.08 207.982 69.8613 208.376 69.424C208.782 68.976 208.984 68.4 208.984 67.696C208.984 66.992 208.782 66.416 208.376 65.968C207.982 65.52 207.47 65.296 206.84 65.296C206.222 65.296 205.71 65.52 205.304 65.968C204.91 66.416 204.712 66.992 204.712 67.696ZM211.4 67.696C211.4 68.944 210.968 69.9947 210.104 70.848C209.24 71.7013 208.152 72.128 206.84 72.128C205.539 72.128 204.456 71.7013 203.592 70.848C202.728 69.9947 202.296 68.944 202.296 67.696C202.296 66.448 202.728 65.3973 203.592 64.544C204.456 63.68 205.539 63.248 206.84 63.248C208.152 63.248 209.24 63.68 210.104 64.544C210.968 65.3973 211.4 66.448 211.4 67.696ZM218.291 63.248C219.294 63.248 220.184 63.6693 220.963 64.512C221.752 65.344 222.147 66.3947 222.147 67.664C222.147 68.9333 221.752 69.9947 220.963 70.848C220.184 71.7013 219.267 72.128 218.211 72.128C217.166 72.128 216.323 71.7067 215.683 70.864V75.104H213.283V63.392H215.683V64.352C216.419 63.616 217.288 63.248 218.291 63.248ZM215.651 67.712C215.651 68.4053 215.843 68.976 216.227 69.424C216.622 69.8613 217.096 70.08 217.651 70.08C218.206 70.08 218.691 69.8613 219.107 69.424C219.523 68.976 219.731 68.4053 219.731 67.712C219.731 67.0187 219.528 66.4373 219.123 65.968C218.718 65.4987 218.232 65.264 217.667 65.264C217.102 65.264 216.622 65.4987 216.227 65.968C215.843 66.4267 215.651 67.008 215.651 67.712ZM235.318 60.816V62.976H230.902V64.848C231.233 64.752 231.611 64.704 232.038 64.704C233.115 64.704 234.043 65.0293 234.822 65.68C235.601 66.3307 235.99 67.2107 235.99 68.32C235.99 69.4187 235.585 70.3307 234.774 71.056C233.974 71.7707 232.982 72.128 231.798 72.128C230.283 72.128 229.019 71.568 228.006 70.448L229.318 68.624C229.414 68.72 229.542 68.8373 229.702 68.976C229.862 69.1147 230.155 69.3013 230.582 69.536C231.009 69.76 231.435 69.872 231.862 69.872C232.289 69.872 232.667 69.744 232.998 69.488C233.329 69.232 233.494 68.8533 233.494 68.352C233.494 67.8507 233.313 67.4667 232.95 67.2C232.598 66.9227 232.139 66.784 231.574 66.784C231.009 66.784 230.353 66.9867 229.606 67.392L228.566 66.272V60.816H235.318ZM240.725 63.648C240.373 64.3307 240.197 65.232 240.197 66.352C240.197 67.472 240.373 68.3733 240.725 69.056C241.077 69.7387 241.626 70.08 242.373 70.08C243.12 70.08 243.669 69.7387 244.021 69.056C244.373 68.3733 244.549 67.472 244.549 66.352C244.549 65.232 244.373 64.3307 244.021 63.648C243.669 62.9653 243.12 62.624 242.373 62.624C241.626 62.624 241.077 62.9653 240.725 63.648ZM242.373 72.128C240.826 72.128 239.669 71.6053 238.901 70.56C238.133 69.504 237.749 68.1013 237.749 66.352C237.749 64.592 238.133 63.1893 238.901 62.144C239.669 61.088 240.826 60.56 242.373 60.56C243.92 60.56 245.077 61.088 245.845 62.144C246.613 63.1893 246.997 64.592 246.997 66.352C246.997 68.1013 246.613 69.504 245.845 70.56C245.077 71.6053 243.92 72.128 242.373 72.128ZM256.319 62.896V63.472H258.399V65.2H256.319V72H253.903V65.2H252.895V63.472H253.903V62.944C253.903 62.0053 254.185 61.264 254.751 60.72C255.327 60.1653 256.036 59.888 256.879 59.888C257.732 59.888 258.505 60.208 259.199 60.848L258.335 62.464C257.983 62.0587 257.593 61.856 257.167 61.856C256.921 61.856 256.719 61.9467 256.559 62.128C256.399 62.2987 256.319 62.5547 256.319 62.896ZM262.392 72H259.992V63.392H262.392V72ZM260.184 62.304C259.918 62.0267 259.784 61.6907 259.784 61.296C259.784 60.9013 259.918 60.5707 260.184 60.304C260.462 60.0267 260.798 59.888 261.192 59.888C261.587 59.888 261.918 60.0267 262.184 60.304C262.462 60.5707 262.6 60.9013 262.6 61.296C262.6 61.6907 262.462 62.0267 262.184 62.304C261.918 62.5707 261.587 62.704 261.192 62.704C260.798 62.704 260.462 62.5707 260.184 62.304ZM269.292 65.504C268.577 65.504 268.044 65.76 267.692 66.272C267.34 66.7733 267.164 67.44 267.164 68.272V72H264.764V63.392H267.164V64.528C267.473 64.176 267.857 63.8773 268.316 63.632C268.785 63.3867 269.26 63.2587 269.74 63.248L269.756 65.504H269.292ZM279.346 67.36V72H276.93V67.296C276.93 66.6133 276.824 66.112 276.61 65.792C276.408 65.472 276.072 65.312 275.602 65.312C275.144 65.312 274.733 65.488 274.37 65.84C274.018 66.1813 273.842 66.688 273.842 67.36V72H271.442V63.392H273.842V64.368C274.504 63.6213 275.261 63.248 276.114 63.248C276.658 63.248 277.149 63.408 277.586 63.728C278.034 64.048 278.37 64.4373 278.594 64.896C278.925 64.3733 279.368 63.968 279.922 63.68C280.488 63.392 281.053 63.248 281.618 63.248C282.632 63.248 283.448 63.552 284.066 64.16C284.685 64.7573 284.994 65.6267 284.994 66.768V72H282.578V67.296C282.578 65.9733 282.093 65.312 281.122 65.312C280.642 65.312 280.226 65.488 279.874 65.84C279.522 66.1813 279.346 66.688 279.346 67.36ZM293.757 69.328C293.757 70.1707 293.442 70.848 292.813 71.36C292.194 71.872 291.405 72.128 290.445 72.128C289.805 72.128 289.138 72.016 288.445 71.792C287.751 71.5573 287.127 71.216 286.573 70.768L287.629 69.264C288.525 69.9573 289.479 70.304 290.493 70.304C290.802 70.304 291.047 70.2453 291.229 70.128C291.41 70 291.501 69.8347 291.501 69.632C291.501 69.4293 291.373 69.2427 291.117 69.072C290.871 68.9013 290.509 68.7413 290.029 68.592C289.559 68.4427 289.197 68.3147 288.941 68.208C288.695 68.1013 288.413 67.9467 288.093 67.744C287.442 67.3387 287.117 66.7413 287.117 65.952C287.117 65.152 287.437 64.5013 288.077 64C288.717 63.4987 289.543 63.248 290.557 63.248C291.57 63.248 292.583 63.5893 293.597 64.272L292.701 65.872C291.954 65.36 291.207 65.104 290.461 65.104C289.725 65.104 289.357 65.3067 289.357 65.712C289.357 65.936 289.474 66.112 289.709 66.24C289.943 66.368 290.333 66.5173 290.877 66.688C291.421 66.8587 291.805 66.992 292.029 67.088C292.263 67.1733 292.541 67.312 292.861 67.504C293.458 67.8667 293.757 68.4747 293.757 69.328Z" fill="#252B42"/>
<rect x="0.5" y="132.5" width="327" height="252" rx="10.5" fill="white"/>
<path d="M50.77 175.836H54.62V174.38H50.77V175.836ZM67.029 179H68.849V170.74H72.097V169.2H63.781V170.74H67.029V179ZM77.7369 171.44C76.7009 171.44 75.8189 171.776 75.2449 172.392V168.612H73.4949V179H75.2449V175.22C75.2449 173.722 76.0849 172.966 77.3309 172.966C78.4509 172.966 79.1089 173.61 79.1089 174.94V179H80.8589V174.716C80.8589 172.462 79.5289 171.44 77.7369 171.44ZM90.3752 175.304C90.3752 172.966 88.7792 171.44 86.5952 171.44C84.3692 171.44 82.7312 173.036 82.7312 175.262C82.7312 177.488 84.3552 179.098 86.8612 179.098C88.1492 179.098 89.1992 178.678 89.8712 177.88L88.9332 176.802C88.4012 177.348 87.7432 177.614 86.9032 177.614C85.6012 177.614 84.6912 176.914 84.4812 175.822H90.3472C90.3612 175.654 90.3752 175.444 90.3752 175.304ZM86.5952 172.84C87.7432 172.84 88.5692 173.582 88.7092 174.66H84.4672C84.6352 173.568 85.4612 172.84 86.5952 172.84ZM100.469 171.44C99.5173 171.44 98.6773 171.762 98.0753 172.434V168.612H96.3253V179H97.9913V178.034C98.5793 178.748 99.4473 179.098 100.469 179.098C102.653 179.098 104.263 177.586 104.263 175.262C104.263 172.938 102.653 171.44 100.469 171.44ZM100.273 177.6C99.0133 177.6 98.0473 176.69 98.0473 175.262C98.0473 173.834 99.0133 172.924 100.273 172.924C101.533 172.924 102.485 173.834 102.485 175.262C102.485 176.69 101.533 177.6 100.273 177.6ZM113.151 175.304C113.151 172.966 111.555 171.44 109.371 171.44C107.145 171.44 105.507 173.036 105.507 175.262C105.507 177.488 107.131 179.098 109.637 179.098C110.925 179.098 111.975 178.678 112.647 177.88L111.709 176.802C111.177 177.348 110.519 177.614 109.679 177.614C108.377 177.614 107.467 176.914 107.257 175.822H113.123C113.137 175.654 113.151 175.444 113.151 175.304ZM109.371 172.84C110.519 172.84 111.345 173.582 111.485 174.66H107.243C107.411 173.568 108.237 172.84 109.371 172.84ZM117.342 179.098C119.442 179.098 120.73 178.188 120.73 176.788C120.73 173.862 116.11 175.206 116.11 173.694C116.11 173.204 116.614 172.854 117.678 172.854C118.392 172.854 119.106 172.994 119.82 173.414L120.492 172.084C119.82 171.678 118.686 171.44 117.692 171.44C115.676 171.44 114.402 172.364 114.402 173.778C114.402 176.76 119.022 175.416 119.022 176.844C119.022 177.362 118.56 177.67 117.454 177.67C116.516 177.67 115.508 177.362 114.85 176.928L114.178 178.258C114.85 178.734 116.096 179.098 117.342 179.098ZM126.441 177.348C126.175 177.558 125.825 177.656 125.461 177.656C124.789 177.656 124.425 177.264 124.425 176.536V172.98H126.427V171.58H124.425V169.872H122.675V171.58H121.443V172.98H122.675V176.578C122.675 178.23 123.613 179.098 125.251 179.098C125.881 179.098 126.511 178.93 126.931 178.594L126.441 177.348ZM136.784 171.44C135.762 171.44 134.894 171.79 134.306 172.504V171.524H132.64V181.716H134.39V178.09C134.992 178.776 135.832 179.098 136.784 179.098C138.968 179.098 140.578 177.586 140.578 175.262C140.578 172.952 138.968 171.44 136.784 171.44ZM136.588 177.6C135.328 177.6 134.362 176.69 134.362 175.262C134.362 173.834 135.328 172.924 136.588 172.924C137.848 172.924 138.8 173.834 138.8 175.262C138.8 176.69 137.848 177.6 136.588 177.6ZM144.103 172.616V171.524H142.437V179H144.187V175.374C144.187 173.848 145.027 173.064 146.357 173.064C146.483 173.064 146.609 173.078 146.763 173.106V171.44C145.517 171.44 144.607 171.832 144.103 172.616ZM151.74 179.098C154.064 179.098 155.73 177.502 155.73 175.262C155.73 173.022 154.064 171.44 151.74 171.44C149.444 171.44 147.764 173.022 147.764 175.262C147.764 177.502 149.444 179.098 151.74 179.098ZM151.74 177.6C150.48 177.6 149.528 176.69 149.528 175.262C149.528 173.834 150.48 172.924 151.74 172.924C153.014 172.924 153.966 173.834 153.966 175.262C153.966 176.69 153.014 177.6 151.74 177.6ZM163.175 168.612V172.448C162.587 171.762 161.733 171.44 160.767 171.44C158.597 171.44 156.987 172.938 156.987 175.262C156.987 177.586 158.597 179.098 160.767 179.098C161.789 179.098 162.657 178.748 163.245 178.034V179H164.925V168.612H163.175ZM160.977 177.6C159.717 177.6 158.751 176.69 158.751 175.262C158.751 173.834 159.717 172.924 160.977 172.924C162.237 172.924 163.203 173.834 163.203 175.262C163.203 176.69 162.237 177.6 160.977 177.6ZM172.902 171.524V175.304C172.902 176.802 172.076 177.558 170.858 177.558C169.752 177.558 169.108 176.914 169.108 175.556V171.524H167.358V175.794C167.358 178.048 168.66 179.098 170.578 179.098C171.544 179.098 172.426 178.734 172.986 178.048V179H174.652V171.524H172.902ZM180.574 179.098C182.03 179.098 183.192 178.468 183.766 177.348L182.422 176.564C181.974 177.278 181.302 177.6 180.56 177.6C179.272 177.6 178.292 176.718 178.292 175.262C178.292 173.82 179.272 172.924 180.56 172.924C181.302 172.924 181.974 173.246 182.422 173.96L183.766 173.176C183.192 172.042 182.03 171.44 180.574 171.44C178.208 171.44 176.528 173.022 176.528 175.262C176.528 177.502 178.208 179.098 180.574 179.098ZM189.578 177.348C189.312 177.558 188.962 177.656 188.598 177.656C187.926 177.656 187.562 177.264 187.562 176.536V172.98H189.564V171.58H187.562V169.872H185.812V171.58H184.58V172.98H185.812V176.578C185.812 178.23 186.75 179.098 188.388 179.098C189.018 179.098 189.648 178.93 190.068 178.594L189.578 177.348ZM194.018 179.098C196.118 179.098 197.406 178.188 197.406 176.788C197.406 173.862 192.786 175.206 192.786 173.694C192.786 173.204 193.29 172.854 194.354 172.854C195.068 172.854 195.782 172.994 196.496 173.414L197.168 172.084C196.496 171.678 195.362 171.44 194.368 171.44C192.352 171.44 191.078 172.364 191.078 173.778C191.078 176.76 195.698 175.416 195.698 176.844C195.698 177.362 195.236 177.67 194.13 177.67C193.192 177.67 192.184 177.362 191.526 176.928L190.854 178.258C191.526 178.734 192.772 179.098 194.018 179.098ZM205.492 179.098C207.592 179.098 208.88 178.188 208.88 176.788C208.88 173.862 204.26 175.206 204.26 173.694C204.26 173.204 204.764 172.854 205.828 172.854C206.542 172.854 207.256 172.994 207.97 173.414L208.642 172.084C207.97 171.678 206.836 171.44 205.842 171.44C203.826 171.44 202.552 172.364 202.552 173.778C202.552 176.76 207.172 175.416 207.172 176.844C207.172 177.362 206.71 177.67 205.604 177.67C204.666 177.67 203.658 177.362 203 176.928L202.328 178.258C203 178.734 204.246 179.098 205.492 179.098ZM214.591 177.348C214.325 177.558 213.975 177.656 213.611 177.656C212.939 177.656 212.575 177.264 212.575 176.536V172.98H214.577V171.58H212.575V169.872H210.825V171.58H209.593V172.98H210.825V176.578C210.825 178.23 211.763 179.098 213.401 179.098C214.031 179.098 214.661 178.93 215.081 178.594L214.591 177.348ZM219.577 171.44C218.373 171.44 217.211 171.748 216.413 172.364L217.099 173.638C217.659 173.176 218.527 172.896 219.367 172.896C220.613 172.896 221.229 173.498 221.229 174.52V174.632H219.297C217.029 174.632 216.189 175.612 216.189 176.858C216.189 178.16 217.267 179.098 218.975 179.098C220.095 179.098 220.907 178.734 221.327 178.09V179H222.979V174.618C222.979 172.462 221.733 171.44 219.577 171.44ZM219.339 177.824C218.443 177.824 217.911 177.418 217.911 176.788C217.911 176.242 218.233 175.794 219.423 175.794H221.229V176.662C220.935 177.432 220.193 177.824 219.339 177.824ZM227.091 172.616V171.524H225.425V179H227.175V175.374C227.175 173.848 228.015 173.064 229.345 173.064C229.471 173.064 229.597 173.078 229.751 173.106V171.44C228.505 171.44 227.595 171.832 227.091 172.616ZM235.713 177.348C235.447 177.558 235.097 177.656 234.733 177.656C234.061 177.656 233.697 177.264 233.697 176.536V172.98H235.699V171.58H233.697V169.872H231.947V171.58H230.715V172.98H231.947V176.578C231.947 178.23 232.885 179.098 234.523 179.098C235.153 179.098 235.783 178.93 236.203 178.594L235.713 177.348ZM61.256 195.524L59.226 201.068L57.21 195.524H55.74L53.682 201.04L51.708 195.524H50.056L52.8 203H54.48L56.44 197.848L58.372 203H60.052L62.81 195.524H61.256ZM65.0952 194.292C65.7532 194.292 66.2152 193.816 66.2152 193.2C66.2152 192.626 65.7392 192.192 65.0952 192.192C64.4512 192.192 63.9752 192.654 63.9752 193.242C63.9752 193.83 64.4512 194.292 65.0952 194.292ZM64.2132 203H65.9632V195.524H64.2132V203ZM72.4641 201.348C72.1981 201.558 71.8481 201.656 71.4841 201.656C70.8121 201.656 70.4481 201.264 70.4481 200.536V196.98H72.4501V195.58H70.4481V193.872H68.6981V195.58H67.4661V196.98H68.6981V200.578C68.6981 202.23 69.6361 203.098 71.2741 203.098C71.9041 203.098 72.5341 202.93 72.9541 202.594L72.4641 201.348ZM78.8357 195.44C77.7997 195.44 76.9177 195.776 76.3437 196.392V192.612H74.5937V203H76.3437V199.22C76.3437 197.722 77.1837 196.966 78.4297 196.966C79.5497 196.966 80.2077 197.61 80.2077 198.94V203H81.9577V198.716C81.9577 196.462 80.6277 195.44 78.8357 195.44ZM95.7688 194.726V193.2H88.6148V203H90.4348V199.248H95.1668V197.708H90.4348V194.726H95.7688ZM98.3062 194.292C98.9642 194.292 99.4262 193.816 99.4262 193.2C99.4262 192.626 98.9502 192.192 98.3062 192.192C97.6622 192.192 97.1862 192.654 97.1862 193.242C97.1862 193.83 97.6622 194.292 98.3062 194.292ZM97.4242 203H99.1742V195.524H97.4242V203ZM107.425 195.524V196.518C106.809 195.776 105.885 195.44 104.835 195.44C102.693 195.44 101.055 196.868 101.055 199.038C101.055 201.208 102.693 202.664 104.835 202.664C105.843 202.664 106.725 202.342 107.341 201.67V202.062C107.341 203.574 106.613 204.33 104.961 204.33C103.925 204.33 102.861 203.98 102.203 203.434L101.419 204.75C102.273 205.45 103.659 205.814 105.059 205.814C107.677 205.814 109.091 204.582 109.091 201.866V195.524H107.425ZM105.101 201.18C103.771 201.18 102.819 200.312 102.819 199.038C102.819 197.778 103.771 196.924 105.101 196.924C106.417 196.924 107.369 197.778 107.369 199.038C107.369 200.312 106.417 201.18 105.101 201.18ZM121.028 195.44C119.838 195.44 118.83 195.916 118.228 196.686C117.71 195.846 116.8 195.44 115.708 195.44C114.686 195.44 113.818 195.804 113.258 196.476V195.524H111.592V203H113.342V199.206C113.342 197.722 114.126 196.966 115.288 196.966C116.352 196.966 116.968 197.61 116.968 198.94V203H118.718V199.206C118.718 197.722 119.516 196.966 120.664 196.966C121.728 196.966 122.344 197.61 122.344 198.94V203H124.094V198.716C124.094 196.462 122.834 195.44 121.028 195.44ZM129.386 195.44C128.182 195.44 127.02 195.748 126.222 196.364L126.908 197.638C127.468 197.176 128.336 196.896 129.176 196.896C130.422 196.896 131.038 197.498 131.038 198.52V198.632H129.106C126.838 198.632 125.998 199.612 125.998 200.858C125.998 202.16 127.076 203.098 128.784 203.098C129.904 203.098 130.716 202.734 131.136 202.09V203H132.788V198.618C132.788 196.462 131.542 195.44 129.386 195.44ZM129.148 201.824C128.252 201.824 127.72 201.418 127.72 200.788C127.72 200.242 128.042 199.794 129.232 199.794H131.038V200.662C130.744 201.432 130.002 201.824 129.148 201.824Z" fill="#737373"/>
<path d="M50.77 228.836H54.62V227.38H50.77V228.836ZM60.9719 232H65.2559C68.4339 232 70.6039 230.04 70.6039 227.1C70.6039 224.16 68.4339 222.2 65.2559 222.2H60.9719V232ZM62.7919 230.46V223.74H65.1719C67.3559 223.74 68.7699 225.07 68.7699 227.1C68.7699 229.13 67.3559 230.46 65.1719 230.46H62.7919ZM79.5983 228.304C79.5983 225.966 78.0023 224.44 75.8183 224.44C73.5923 224.44 71.9543 226.036 71.9543 228.262C71.9543 230.488 73.5783 232.098 76.0843 232.098C77.3723 232.098 78.4223 231.678 79.0943 230.88L78.1563 229.802C77.6243 230.348 76.9663 230.614 76.1263 230.614C74.8243 230.614 73.9143 229.914 73.7043 228.822H79.5703C79.5843 228.654 79.5983 228.444 79.5983 228.304ZM75.8183 225.84C76.9663 225.84 77.7923 226.582 77.9323 227.66H73.6903C73.8583 226.568 74.6843 225.84 75.8183 225.84ZM83.7892 232.098C85.8892 232.098 87.1772 231.188 87.1772 229.788C87.1772 226.862 82.5572 228.206 82.5572 226.694C82.5572 226.204 83.0612 225.854 84.1252 225.854C84.8392 225.854 85.5532 225.994 86.2672 226.414L86.9392 225.084C86.2672 224.678 85.1332 224.44 84.1392 224.44C82.1232 224.44 80.8492 225.364 80.8492 226.778C80.8492 229.76 85.4692 228.416 85.4692 229.844C85.4692 230.362 85.0072 230.67 83.9012 230.67C82.9632 230.67 81.9552 230.362 81.2972 229.928L80.6252 231.258C81.2972 231.734 82.5432 232.098 83.7892 232.098ZM89.7663 223.292C90.4243 223.292 90.8863 222.816 90.8863 222.2C90.8863 221.626 90.4103 221.192 89.7663 221.192C89.1223 221.192 88.6463 221.654 88.6463 222.242C88.6463 222.83 89.1223 223.292 89.7663 223.292ZM88.8843 232H90.6343V224.524H88.8843V232ZM98.8852 224.524V225.518C98.2692 224.776 97.3452 224.44 96.2952 224.44C94.1532 224.44 92.5152 225.868 92.5152 228.038C92.5152 230.208 94.1532 231.664 96.2952 231.664C97.3032 231.664 98.1852 231.342 98.8012 230.67V231.062C98.8012 232.574 98.0732 233.33 96.4212 233.33C95.3852 233.33 94.3212 232.98 93.6632 232.434L92.8792 233.75C93.7332 234.45 95.1192 234.814 96.5192 234.814C99.1372 234.814 100.551 233.582 100.551 230.866V224.524H98.8852ZM96.5612 230.18C95.2312 230.18 94.2792 229.312 94.2792 228.038C94.2792 226.778 95.2312 225.924 96.5612 225.924C97.8772 225.924 98.8292 226.778 98.8292 228.038C98.8292 229.312 97.8772 230.18 96.5612 230.18ZM107.294 224.44C106.202 224.44 105.292 224.804 104.718 225.49V224.524H103.052V232H104.802V228.22C104.802 226.722 105.642 225.966 106.888 225.966C108.008 225.966 108.666 226.61 108.666 227.94V232H110.416V227.716C110.416 225.462 109.086 224.44 107.294 224.44ZM127.013 224.524L124.983 230.068L122.967 224.524H121.497L119.439 230.04L117.465 224.524H115.813L118.557 232H120.237L122.197 226.848L124.129 232H125.809L128.567 224.524H127.013ZM130.852 223.292C131.51 223.292 131.972 222.816 131.972 222.2C131.972 221.626 131.496 221.192 130.852 221.192C130.208 221.192 129.732 221.654 129.732 222.242C129.732 222.83 130.208 223.292 130.852 223.292ZM129.97 232H131.72V224.524H129.97V232ZM138.221 230.348C137.955 230.558 137.605 230.656 137.241 230.656C136.569 230.656 136.205 230.264 136.205 229.536V225.98H138.207V224.58H136.205V222.872H134.455V224.58H133.223V225.98H134.455V229.578C134.455 231.23 135.393 232.098 137.031 232.098C137.661 232.098 138.291 231.93 138.711 231.594L138.221 230.348ZM144.593 224.44C143.557 224.44 142.675 224.776 142.101 225.392V221.612H140.351V232H142.101V228.22C142.101 226.722 142.941 225.966 144.187 225.966C145.307 225.966 145.965 226.61 145.965 227.94V232H147.715V227.716C147.715 225.462 146.385 224.44 144.593 224.44ZM155.87 225.616V224.524H154.204V232H155.954V228.374C155.954 226.848 156.794 226.064 158.124 226.064C158.25 226.064 158.376 226.078 158.53 226.106V224.44C157.284 224.44 156.374 224.832 155.87 225.616ZM167.174 228.304C167.174 225.966 165.578 224.44 163.394 224.44C161.168 224.44 159.53 226.036 159.53 228.262C159.53 230.488 161.154 232.098 163.66 232.098C164.948 232.098 165.998 231.678 166.67 230.88L165.732 229.802C165.2 230.348 164.542 230.614 163.702 230.614C162.4 230.614 161.49 229.914 161.28 228.822H167.146C167.16 228.654 167.174 228.444 167.174 228.304ZM163.394 225.84C164.542 225.84 165.368 226.582 165.508 227.66H161.266C161.434 226.568 162.26 225.84 163.394 225.84ZM171.706 224.44C170.502 224.44 169.34 224.748 168.542 225.364L169.228 226.638C169.788 226.176 170.656 225.896 171.496 225.896C172.742 225.896 173.358 226.498 173.358 227.52V227.632H171.426C169.158 227.632 168.318 228.612 168.318 229.858C168.318 231.16 169.396 232.098 171.104 232.098C172.224 232.098 173.036 231.734 173.456 231.09V232H175.108V227.618C175.108 225.462 173.862 224.44 171.706 224.44ZM171.468 230.824C170.572 230.824 170.04 230.418 170.04 229.788C170.04 229.242 170.362 228.794 171.552 228.794H173.358V229.662C173.064 230.432 172.322 230.824 171.468 230.824ZM177.554 232H179.304V221.612H177.554V232ZM191.442 221.612V225.448C190.854 224.762 190 224.44 189.034 224.44C186.864 224.44 185.254 225.938 185.254 228.262C185.254 230.586 186.864 232.098 189.034 232.098C190.056 232.098 190.924 231.748 191.512 231.034V232H193.192V221.612H191.442ZM189.244 230.6C187.984 230.6 187.018 229.69 187.018 228.262C187.018 226.834 187.984 225.924 189.244 225.924C190.504 225.924 191.47 226.834 191.47 228.262C191.47 229.69 190.504 230.6 189.244 230.6ZM198.537 224.44C197.333 224.44 196.171 224.748 195.373 225.364L196.059 226.638C196.619 226.176 197.487 225.896 198.327 225.896C199.573 225.896 200.189 226.498 200.189 227.52V227.632H198.257C195.989 227.632 195.149 228.612 195.149 229.858C195.149 231.16 196.227 232.098 197.935 232.098C199.055 232.098 199.867 231.734 200.287 231.09V232H201.939V227.618C201.939 225.462 200.693 224.44 198.537 224.44ZM198.299 230.824C197.403 230.824 196.871 230.418 196.871 229.788C196.871 229.242 197.193 228.794 198.383 228.794H200.189V229.662C199.895 230.432 199.153 230.824 198.299 230.824ZM208.389 230.348C208.123 230.558 207.773 230.656 207.409 230.656C206.737 230.656 206.373 230.264 206.373 229.536V225.98H208.375V224.58H206.373V222.872H204.623V224.58H203.391V225.98H204.623V229.578C204.623 231.23 205.561 232.098 207.199 232.098C207.829 232.098 208.459 231.93 208.879 231.594L208.389 230.348ZM213.375 224.44C212.171 224.44 211.009 224.748 210.211 225.364L210.897 226.638C211.457 226.176 212.325 225.896 213.165 225.896C214.411 225.896 215.027 226.498 215.027 227.52V227.632H213.095C210.827 227.632 209.987 228.612 209.987 229.858C209.987 231.16 211.065 232.098 212.773 232.098C213.893 232.098 214.705 231.734 215.125 231.09V232H216.777V227.618C216.777 225.462 215.531 224.44 213.375 224.44ZM213.137 230.824C212.241 230.824 211.709 230.418 211.709 229.788C211.709 229.242 212.031 228.794 213.221 228.794H215.027V229.662C214.733 230.432 213.991 230.824 213.137 230.824Z" fill="#737373"/>
<path d="M50.77 257.836H54.62V256.38H50.77V257.836ZM60.9719 261H67.9159V259.46H62.7919V251.2H60.9719V261ZM70.2667 252.292C70.9247 252.292 71.3867 251.816 71.3867 251.2C71.3867 250.626 70.9107 250.192 70.2667 250.192C69.6227 250.192 69.1467 250.654 69.1467 251.242C69.1467 251.83 69.6227 252.292 70.2667 252.292ZM69.3847 261H71.1347V253.524H69.3847V261ZM79.3856 253.524V254.518C78.7696 253.776 77.8456 253.44 76.7956 253.44C74.6536 253.44 73.0156 254.868 73.0156 257.038C73.0156 259.208 74.6536 260.664 76.7956 260.664C77.8036 260.664 78.6856 260.342 79.3016 259.67V260.062C79.3016 261.574 78.5736 262.33 76.9216 262.33C75.8856 262.33 74.8216 261.98 74.1636 261.434L73.3796 262.75C74.2336 263.45 75.6196 263.814 77.0196 263.814C79.6376 263.814 81.0516 262.582 81.0516 259.866V253.524H79.3856ZM77.0616 259.18C75.7316 259.18 74.7796 258.312 74.7796 257.038C74.7796 255.778 75.7316 254.924 77.0616 254.924C78.3776 254.924 79.3296 255.778 79.3296 257.038C79.3296 258.312 78.3776 259.18 77.0616 259.18ZM87.7943 253.44C86.7583 253.44 85.8763 253.776 85.3023 254.392V250.612H83.5523V261H85.3023V257.22C85.3023 255.722 86.1423 254.966 87.3883 254.966C88.5083 254.966 89.1663 255.61 89.1663 256.94V261H90.9163V256.716C90.9163 254.462 89.5863 253.44 87.7943 253.44ZM97.3403 259.348C97.0743 259.558 96.7243 259.656 96.3603 259.656C95.6883 259.656 95.3243 259.264 95.3243 258.536V254.98H97.3263V253.58H95.3243V251.872H93.5743V253.58H92.3423V254.98H93.5743V258.578C93.5743 260.23 94.5123 261.098 96.1503 261.098C96.7803 261.098 97.4103 260.93 97.8303 260.594L97.3403 259.348ZM103.712 253.44C102.62 253.44 101.71 253.804 101.136 254.49V253.524H99.4699V261H101.22V257.22C101.22 255.722 102.06 254.966 103.306 254.966C104.426 254.966 105.084 255.61 105.084 256.94V261H106.834V256.716C106.834 254.462 105.504 253.44 103.712 253.44ZM110.136 252.292C110.794 252.292 111.256 251.816 111.256 251.2C111.256 250.626 110.78 250.192 110.136 250.192C109.492 250.192 109.016 250.654 109.016 251.242C109.016 251.83 109.492 252.292 110.136 252.292ZM109.254 261H111.004V253.524H109.254V261ZM117.743 253.44C116.651 253.44 115.741 253.804 115.167 254.49V253.524H113.501V261H115.251V257.22C115.251 255.722 116.091 254.966 117.337 254.966C118.457 254.966 119.115 255.61 119.115 256.94V261H120.865V256.716C120.865 254.462 119.535 253.44 117.743 253.44ZM129.107 253.524V254.518C128.491 253.776 127.567 253.44 126.517 253.44C124.375 253.44 122.737 254.868 122.737 257.038C122.737 259.208 124.375 260.664 126.517 260.664C127.525 260.664 128.407 260.342 129.023 259.67V260.062C129.023 261.574 128.295 262.33 126.643 262.33C125.607 262.33 124.543 261.98 123.885 261.434L123.101 262.75C123.955 263.45 125.341 263.814 126.741 263.814C129.359 263.814 130.773 262.582 130.773 259.866V253.524H129.107ZM126.783 259.18C125.453 259.18 124.501 258.312 124.501 257.038C124.501 255.778 125.453 254.924 126.783 254.924C128.099 254.924 129.051 255.778 129.051 257.038C129.051 258.312 128.099 259.18 126.783 259.18ZM140.381 251.928C140.745 251.928 141.081 252.054 141.347 252.236L141.837 250.92C141.445 250.64 140.857 250.514 140.255 250.514C138.519 250.514 137.581 251.536 137.581 253.104V253.58H136.349V254.98H137.581V261H139.331V254.98H141.333V253.58H139.275V253.132C139.275 252.334 139.653 251.928 140.381 251.928ZM145.43 253.44C144.226 253.44 143.064 253.748 142.266 254.364L142.952 255.638C143.512 255.176 144.38 254.896 145.22 254.896C146.466 254.896 147.082 255.498 147.082 256.52V256.632H145.15C142.882 256.632 142.042 257.612 142.042 258.858C142.042 260.16 143.12 261.098 144.828 261.098C145.948 261.098 146.76 260.734 147.18 260.09V261H148.832V256.618C148.832 254.462 147.586 253.44 145.43 253.44ZM145.192 259.824C144.296 259.824 143.764 259.418 143.764 258.788C143.764 258.242 144.086 257.794 145.276 257.794H147.082V258.662C146.788 259.432 146.046 259.824 145.192 259.824ZM153.588 261.098C155.688 261.098 156.976 260.188 156.976 258.788C156.976 255.862 152.356 257.206 152.356 255.694C152.356 255.204 152.86 254.854 153.924 254.854C154.638 254.854 155.352 254.994 156.066 255.414L156.738 254.084C156.066 253.678 154.932 253.44 153.938 253.44C151.922 253.44 150.648 254.364 150.648 255.778C150.648 258.76 155.268 257.416 155.268 258.844C155.268 259.362 154.806 259.67 153.7 259.67C152.762 259.67 151.754 259.362 151.096 258.928L150.424 260.258C151.096 260.734 152.342 261.098 153.588 261.098ZM162.687 259.348C162.421 259.558 162.071 259.656 161.707 259.656C161.035 259.656 160.671 259.264 160.671 258.536V254.98H162.673V253.58H160.671V251.872H158.921V253.58H157.689V254.98H158.921V258.578C158.921 260.23 159.859 261.098 161.497 261.098C162.127 261.098 162.757 260.93 163.177 260.594L162.687 259.348ZM173.03 253.44C172.008 253.44 171.14 253.79 170.552 254.504V253.524H168.886V263.716H170.636V260.09C171.238 260.776 172.078 261.098 173.03 261.098C175.214 261.098 176.824 259.586 176.824 257.262C176.824 254.952 175.214 253.44 173.03 253.44ZM172.834 259.6C171.574 259.6 170.608 258.69 170.608 257.262C170.608 255.834 171.574 254.924 172.834 254.924C174.094 254.924 175.046 255.834 175.046 257.262C175.046 258.69 174.094 259.6 172.834 259.6ZM180.35 254.616V253.524H178.684V261H180.434V257.374C180.434 255.848 181.274 255.064 182.604 255.064C182.73 255.064 182.856 255.078 183.01 255.106V253.44C181.764 253.44 180.854 253.832 180.35 254.616ZM187.986 261.098C190.31 261.098 191.976 259.502 191.976 257.262C191.976 255.022 190.31 253.44 187.986 253.44C185.69 253.44 184.01 255.022 184.01 257.262C184.01 259.502 185.69 261.098 187.986 261.098ZM187.986 259.6C186.726 259.6 185.774 258.69 185.774 257.262C185.774 255.834 186.726 254.924 187.986 254.924C189.26 254.924 190.212 255.834 190.212 257.262C190.212 258.69 189.26 259.6 187.986 259.6ZM197.853 259.348C197.587 259.558 197.237 259.656 196.873 259.656C196.201 259.656 195.837 259.264 195.837 258.536V254.98H197.839V253.58H195.837V251.872H194.087V253.58H192.855V254.98H194.087V258.578C194.087 260.23 195.025 261.098 196.663 261.098C197.293 261.098 197.923 260.93 198.343 260.594L197.853 259.348ZM203.097 261.098C205.421 261.098 207.087 259.502 207.087 257.262C207.087 255.022 205.421 253.44 203.097 253.44C200.801 253.44 199.121 255.022 199.121 257.262C199.121 259.502 200.801 261.098 203.097 261.098ZM203.097 259.6C201.837 259.6 200.885 258.69 200.885 257.262C200.885 255.834 201.837 254.924 203.097 254.924C204.371 254.924 205.323 255.834 205.323 257.262C205.323 258.69 204.371 259.6 203.097 259.6ZM212.964 259.348C212.698 259.558 212.348 259.656 211.984 259.656C211.312 259.656 210.948 259.264 210.948 258.536V254.98H212.95V253.58H210.948V251.872H209.198V253.58H207.966V254.98H209.198V258.578C209.198 260.23 210.136 261.098 211.774 261.098C212.404 261.098 213.034 260.93 213.454 260.594L212.964 259.348ZM220.277 253.524L217.911 259.054L215.559 253.524H213.739L217.001 261.028L216.875 261.322C216.539 262.064 216.175 262.358 215.559 262.358C215.083 262.358 214.607 262.162 214.271 261.84L213.571 263.128C214.047 263.562 214.831 263.814 215.573 263.814C216.819 263.814 217.771 263.296 218.457 261.602L221.957 253.524H220.277ZM227.395 253.44C226.373 253.44 225.505 253.79 224.917 254.504V253.524H223.251V263.716H225.001V260.09C225.603 260.776 226.443 261.098 227.395 261.098C229.579 261.098 231.189 259.586 231.189 257.262C231.189 254.952 229.579 253.44 227.395 253.44ZM227.199 259.6C225.939 259.6 224.973 258.69 224.973 257.262C224.973 255.834 225.939 254.924 227.199 254.924C228.459 254.924 229.411 255.834 229.411 257.262C229.411 258.69 228.459 259.6 227.199 259.6ZM233.93 252.292C234.588 252.292 235.05 251.816 235.05 251.2C235.05 250.626 234.574 250.192 233.93 250.192C233.286 250.192 232.81 250.654 232.81 251.242C232.81 251.83 233.286 252.292 233.93 252.292ZM233.048 261H234.798V253.524H233.048V261ZM241.537 253.44C240.445 253.44 239.535 253.804 238.961 254.49V253.524H237.295V261H239.045V257.22C239.045 255.722 239.885 254.966 241.131 254.966C242.251 254.966 242.909 255.61 242.909 256.94V261H244.659V256.716C244.659 254.462 243.329 253.44 241.537 253.44ZM252.902 253.524V254.518C252.286 253.776 251.362 253.44 250.312 253.44C248.17 253.44 246.532 254.868 246.532 257.038C246.532 259.208 248.17 260.664 250.312 260.664C251.32 260.664 252.202 260.342 252.818 259.67V260.062C252.818 261.574 252.09 262.33 250.438 262.33C249.402 262.33 248.338 261.98 247.68 261.434L246.896 262.75C247.75 263.45 249.136 263.814 250.536 263.814C253.154 263.814 254.568 262.582 254.568 259.866V253.524H252.902ZM250.578 259.18C249.248 259.18 248.296 258.312 248.296 257.038C248.296 255.778 249.248 254.924 250.578 254.924C251.894 254.924 252.846 255.778 252.846 257.038C252.846 258.312 251.894 259.18 250.578 259.18Z" fill="#737373"/>
<path d="M50.77 286.836H54.62V285.38H50.77V286.836ZM68.1259 281.726V280.2H60.9719V290H62.7919V286.248H67.5239V284.708H62.7919V281.726H68.1259ZM72.5415 282.44C71.3375 282.44 70.1755 282.748 69.3775 283.364L70.0635 284.638C70.6235 284.176 71.4915 283.896 72.3315 283.896C73.5775 283.896 74.1935 284.498 74.1935 285.52V285.632H72.2615C69.9935 285.632 69.1535 286.612 69.1535 287.858C69.1535 289.16 70.2315 290.098 71.9395 290.098C73.0595 290.098 73.8715 289.734 74.2915 289.09V290H75.9435V285.618C75.9435 283.462 74.6975 282.44 72.5415 282.44ZM72.3035 288.824C71.4075 288.824 70.8755 288.418 70.8755 287.788C70.8755 287.242 71.1975 286.794 72.3875 286.794H74.1935V287.662C73.8995 288.432 73.1575 288.824 72.3035 288.824ZM80.6994 290.098C82.7994 290.098 84.0874 289.188 84.0874 287.788C84.0874 284.862 79.4674 286.206 79.4674 284.694C79.4674 284.204 79.9714 283.854 81.0354 283.854C81.7494 283.854 82.4634 283.994 83.1774 284.414L83.8494 283.084C83.1774 282.678 82.0434 282.44 81.0494 282.44C79.0334 282.44 77.7594 283.364 77.7594 284.778C77.7594 287.76 82.3794 286.416 82.3794 287.844C82.3794 288.362 81.9174 288.67 80.8114 288.67C79.8734 288.67 78.8654 288.362 78.2074 287.928L77.5354 289.258C78.2074 289.734 79.4534 290.098 80.6994 290.098ZM89.7985 288.348C89.5325 288.558 89.1825 288.656 88.8185 288.656C88.1465 288.656 87.7825 288.264 87.7825 287.536V283.98H89.7845V282.58H87.7825V280.872H86.0325V282.58H84.8005V283.98H86.0325V287.578C86.0325 289.23 86.9705 290.098 88.6085 290.098C89.2385 290.098 89.8685 289.93 90.2885 289.594L89.7985 288.348ZM98.71 286.304C98.71 283.966 97.114 282.44 94.93 282.44C92.704 282.44 91.066 284.036 91.066 286.262C91.066 288.488 92.69 290.098 95.196 290.098C96.484 290.098 97.534 289.678 98.206 288.88L97.268 287.802C96.736 288.348 96.078 288.614 95.238 288.614C93.936 288.614 93.026 287.914 92.816 286.822H98.682C98.696 286.654 98.71 286.444 98.71 286.304ZM94.93 283.84C96.078 283.84 96.904 284.582 97.044 285.66H92.802C92.97 284.568 93.796 283.84 94.93 283.84ZM102.901 290.098C105.001 290.098 106.289 289.188 106.289 287.788C106.289 284.862 101.669 286.206 101.669 284.694C101.669 284.204 102.173 283.854 103.237 283.854C103.951 283.854 104.665 283.994 105.379 284.414L106.051 283.084C105.379 282.678 104.245 282.44 103.251 282.44C101.235 282.44 99.961 283.364 99.961 284.778C99.961 287.76 104.581 286.416 104.581 287.844C104.581 288.362 104.119 288.67 103.013 288.67C102.075 288.67 101.067 288.362 100.409 287.928L99.737 289.258C100.409 289.734 101.655 290.098 102.901 290.098ZM112 288.348C111.734 288.558 111.384 288.656 111.02 288.656C110.348 288.656 109.984 288.264 109.984 287.536V283.98H111.986V282.58H109.984V280.872H108.234V282.58H107.002V283.98H108.234V287.578C108.234 289.23 109.172 290.098 110.81 290.098C111.44 290.098 112.07 289.93 112.49 289.594L112 288.348ZM128.307 282.524L126.277 288.068L124.261 282.524H122.791L120.733 288.04L118.759 282.524H117.107L119.851 290H121.531L123.491 284.848L125.423 290H127.103L129.861 282.524H128.307ZM133.888 282.44C132.684 282.44 131.522 282.748 130.724 283.364L131.41 284.638C131.97 284.176 132.838 283.896 133.678 283.896C134.924 283.896 135.54 284.498 135.54 285.52V285.632H133.608C131.34 285.632 130.5 286.612 130.5 287.858C130.5 289.16 131.578 290.098 133.286 290.098C134.406 290.098 135.218 289.734 135.638 289.09V290H137.29V285.618C137.29 283.462 136.044 282.44 133.888 282.44ZM133.65 288.824C132.754 288.824 132.222 288.418 132.222 287.788C132.222 287.242 132.544 286.794 133.734 286.794H135.54V287.662C135.246 288.432 134.504 288.824 133.65 288.824ZM144.919 282.524L142.553 288.054L140.201 282.524H138.381L141.643 290.028L141.517 290.322C141.181 291.064 140.817 291.358 140.201 291.358C139.725 291.358 139.249 291.162 138.913 290.84L138.213 292.128C138.689 292.562 139.473 292.814 140.215 292.814C141.461 292.814 142.413 292.296 143.099 290.602L146.599 282.524H144.919ZM155.966 288.348C155.7 288.558 155.35 288.656 154.986 288.656C154.314 288.656 153.95 288.264 153.95 287.536V283.98H155.952V282.58H153.95V280.872H152.2V282.58H150.968V283.98H152.2V287.578C152.2 289.23 153.138 290.098 154.776 290.098C155.406 290.098 156.036 289.93 156.456 289.594L155.966 288.348ZM161.209 290.098C163.533 290.098 165.199 288.502 165.199 286.262C165.199 284.022 163.533 282.44 161.209 282.44C158.913 282.44 157.233 284.022 157.233 286.262C157.233 288.502 158.913 290.098 161.209 290.098ZM161.209 288.6C159.949 288.6 158.997 287.69 158.997 286.262C158.997 284.834 159.949 283.924 161.209 283.924C162.483 283.924 163.435 284.834 163.435 286.262C163.435 287.69 162.483 288.6 161.209 288.6ZM174.502 290.098C176.826 290.098 178.492 288.502 178.492 286.262C178.492 284.022 176.826 282.44 174.502 282.44C172.206 282.44 170.526 284.022 170.526 286.262C170.526 288.502 172.206 290.098 174.502 290.098ZM174.502 288.6C173.242 288.6 172.29 287.69 172.29 286.262C172.29 284.834 173.242 283.924 174.502 283.924C175.776 283.924 176.728 284.834 176.728 286.262C176.728 287.69 175.776 288.6 174.502 288.6ZM182.031 283.616V282.524H180.365V290H182.115V286.374C182.115 284.848 182.955 284.064 184.285 284.064C184.411 284.064 184.537 284.078 184.691 284.106V282.44C183.445 282.44 182.535 282.832 182.031 283.616ZM192.061 282.524V283.518C191.445 282.776 190.521 282.44 189.471 282.44C187.329 282.44 185.691 283.868 185.691 286.038C185.691 288.208 187.329 289.664 189.471 289.664C190.479 289.664 191.361 289.342 191.977 288.67V289.062C191.977 290.574 191.249 291.33 189.597 291.33C188.561 291.33 187.497 290.98 186.839 290.434L186.055 291.75C186.909 292.45 188.295 292.814 189.695 292.814C192.313 292.814 193.727 291.582 193.727 288.866V282.524H192.061ZM189.737 288.18C188.407 288.18 187.455 287.312 187.455 286.038C187.455 284.778 188.407 283.924 189.737 283.924C191.053 283.924 192.005 284.778 192.005 286.038C192.005 287.312 191.053 288.18 189.737 288.18ZM199.084 282.44C197.88 282.44 196.718 282.748 195.92 283.364L196.606 284.638C197.166 284.176 198.034 283.896 198.874 283.896C200.12 283.896 200.736 284.498 200.736 285.52V285.632H198.804C196.536 285.632 195.696 286.612 195.696 287.858C195.696 289.16 196.774 290.098 198.482 290.098C199.602 290.098 200.414 289.734 200.834 289.09V290H202.486V285.618C202.486 283.462 201.24 282.44 199.084 282.44ZM198.846 288.824C197.95 288.824 197.418 288.418 197.418 287.788C197.418 287.242 197.74 286.794 198.93 286.794H200.736V287.662C200.442 288.432 199.7 288.824 198.846 288.824ZM209.174 282.44C208.082 282.44 207.172 282.804 206.598 283.49V282.524H204.932V290H206.682V286.22C206.682 284.722 207.522 283.966 208.768 283.966C209.888 283.966 210.546 284.61 210.546 285.94V290H212.296V285.716C212.296 283.462 210.966 282.44 209.174 282.44ZM215.598 281.292C216.256 281.292 216.718 280.816 216.718 280.2C216.718 279.626 216.242 279.192 215.598 279.192C214.954 279.192 214.478 279.654 214.478 280.242C214.478 280.83 214.954 281.292 215.598 281.292ZM214.716 290H216.466V282.524H214.716V290ZM220.573 288.6L224.689 283.63V282.524H218.431V283.924H222.449L218.347 288.894V290H224.801V288.6H220.573ZM233.533 286.304C233.533 283.966 231.937 282.44 229.753 282.44C227.527 282.44 225.889 284.036 225.889 286.262C225.889 288.488 227.513 290.098 230.019 290.098C231.307 290.098 232.357 289.678 233.029 288.88L232.091 287.802C231.559 288.348 230.901 288.614 230.061 288.614C228.759 288.614 227.849 287.914 227.639 286.822H233.505C233.519 286.654 233.533 286.444 233.533 286.304ZM229.753 283.84C230.901 283.84 231.727 284.582 231.867 285.66H227.625C227.793 284.568 228.619 283.84 229.753 283.84Z" fill="#737373"/>
<path d="M50.77 315.836H54.62V314.38H50.77V315.836ZM73.5579 309.2L71.0519 316.69L68.5739 309.2H66.8939L64.3599 316.648L61.9239 309.2H60.0339L63.2819 319H65.2279L67.6919 311.748L70.1139 319H72.0459L75.2939 309.2H73.5579ZM79.608 319.098C81.932 319.098 83.598 317.502 83.598 315.262C83.598 313.022 81.932 311.44 79.608 311.44C77.312 311.44 75.632 313.022 75.632 315.262C75.632 317.502 77.312 319.098 79.608 319.098ZM79.608 317.6C78.348 317.6 77.396 316.69 77.396 315.262C77.396 313.834 78.348 312.924 79.608 312.924C80.882 312.924 81.834 313.834 81.834 315.262C81.834 316.69 80.882 317.6 79.608 317.6ZM87.1374 312.616V311.524H85.4714V319H87.2214V315.374C87.2214 313.848 88.0614 313.064 89.3914 313.064C89.5174 313.064 89.6434 313.078 89.7974 313.106V311.44C88.5514 311.44 87.6414 311.832 87.1374 312.616ZM97.124 319H99.252L95.836 314.66L98.958 311.524H96.858L93.232 314.884V308.612H91.482V319H93.232V317.026L94.534 315.794L97.124 319ZM107.508 311.44C106.304 311.44 105.142 311.748 104.344 312.364L105.03 313.638C105.59 313.176 106.458 312.896 107.298 312.896C108.544 312.896 109.16 313.498 109.16 314.52V314.632H107.228C104.96 314.632 104.12 315.612 104.12 316.858C104.12 318.16 105.198 319.098 106.906 319.098C108.026 319.098 108.838 318.734 109.258 318.09V319H110.91V314.618C110.91 312.462 109.664 311.44 107.508 311.44ZM107.27 317.824C106.374 317.824 105.842 317.418 105.842 316.788C105.842 316.242 106.164 315.794 107.354 315.794H109.16V316.662C108.866 317.432 108.124 317.824 107.27 317.824ZM117.359 317.348C117.093 317.558 116.743 317.656 116.379 317.656C115.707 317.656 115.343 317.264 115.343 316.536V312.98H117.345V311.58H115.343V309.872H113.593V311.58H112.361V312.98H113.593V316.578C113.593 318.23 114.531 319.098 116.169 319.098C116.799 319.098 117.429 318.93 117.849 318.594L117.359 317.348ZM127.562 317.348C127.296 317.558 126.946 317.656 126.582 317.656C125.91 317.656 125.546 317.264 125.546 316.536V312.98H127.548V311.58H125.546V309.872H123.796V311.58H122.564V312.98H123.796V316.578C123.796 318.23 124.734 319.098 126.372 319.098C127.002 319.098 127.632 318.93 128.052 318.594L127.562 317.348ZM133.934 311.44C132.898 311.44 132.016 311.776 131.442 312.392V308.612H129.692V319H131.442V315.22C131.442 313.722 132.282 312.966 133.528 312.966C134.648 312.966 135.306 313.61 135.306 314.94V319H137.056V314.716C137.056 312.462 135.726 311.44 133.934 311.44ZM146.572 315.304C146.572 312.966 144.976 311.44 142.792 311.44C140.566 311.44 138.928 313.036 138.928 315.262C138.928 317.488 140.552 319.098 143.058 319.098C144.346 319.098 145.396 318.678 146.068 317.88L145.13 316.802C144.598 317.348 143.94 317.614 143.1 317.614C141.798 317.614 140.888 316.914 140.678 315.822H146.544C146.558 315.654 146.572 315.444 146.572 315.304ZM142.792 312.84C143.94 312.84 144.766 313.582 144.906 314.66H140.664C140.832 313.568 141.658 312.84 142.792 312.84ZM154.832 319.098C156.932 319.098 158.22 318.188 158.22 316.788C158.22 313.862 153.6 315.206 153.6 313.694C153.6 313.204 154.104 312.854 155.168 312.854C155.882 312.854 156.596 312.994 157.31 313.414L157.982 312.084C157.31 311.678 156.176 311.44 155.182 311.44C153.166 311.44 151.892 312.364 151.892 313.778C151.892 316.76 156.512 315.416 156.512 316.844C156.512 317.362 156.05 317.67 154.944 317.67C154.006 317.67 152.998 317.362 152.34 316.928L151.668 318.258C152.34 318.734 153.586 319.098 154.832 319.098ZM164.071 311.44C163.049 311.44 162.181 311.79 161.593 312.504V311.524H159.927V321.716H161.677V318.09C162.279 318.776 163.119 319.098 164.071 319.098C166.255 319.098 167.865 317.586 167.865 315.262C167.865 312.952 166.255 311.44 164.071 311.44ZM163.875 317.6C162.615 317.6 161.649 316.69 161.649 315.262C161.649 313.834 162.615 312.924 163.875 312.924C165.135 312.924 166.087 313.834 166.087 315.262C166.087 316.69 165.135 317.6 163.875 317.6ZM176.753 315.304C176.753 312.966 175.157 311.44 172.973 311.44C170.747 311.44 169.109 313.036 169.109 315.262C169.109 317.488 170.733 319.098 173.239 319.098C174.527 319.098 175.577 318.678 176.249 317.88L175.311 316.802C174.779 317.348 174.121 317.614 173.281 317.614C171.979 317.614 171.069 316.914 170.859 315.822H176.725C176.739 315.654 176.753 315.444 176.753 315.304ZM172.973 312.84C174.121 312.84 174.947 313.582 175.087 314.66H170.845C171.013 313.568 171.839 312.84 172.973 312.84ZM185.662 315.304C185.662 312.966 184.066 311.44 181.882 311.44C179.656 311.44 178.018 313.036 178.018 315.262C178.018 317.488 179.642 319.098 182.148 319.098C183.436 319.098 184.486 318.678 185.158 317.88L184.22 316.802C183.688 317.348 183.03 317.614 182.19 317.614C180.888 317.614 179.978 316.914 179.768 315.822H185.634C185.648 315.654 185.662 315.444 185.662 315.304ZM181.882 312.84C183.03 312.84 183.856 313.582 183.996 314.66H179.754C179.922 313.568 180.748 312.84 181.882 312.84ZM193.115 308.612V312.448C192.527 311.762 191.673 311.44 190.707 311.44C188.537 311.44 186.927 312.938 186.927 315.262C186.927 317.586 188.537 319.098 190.707 319.098C191.729 319.098 192.597 318.748 193.185 318.034V319H194.865V308.612H193.115ZM190.917 317.6C189.657 317.6 188.691 316.69 188.691 315.262C188.691 313.834 189.657 312.924 190.917 312.924C192.177 312.924 193.143 313.834 193.143 315.262C193.143 316.69 192.177 317.6 190.917 317.6ZM204.783 319.098C207.107 319.098 208.773 317.502 208.773 315.262C208.773 313.022 207.107 311.44 204.783 311.44C202.487 311.44 200.807 313.022 200.807 315.262C200.807 317.502 202.487 319.098 204.783 319.098ZM204.783 317.6C203.523 317.6 202.571 316.69 202.571 315.262C202.571 313.834 203.523 312.924 204.783 312.924C206.057 312.924 207.009 313.834 207.009 315.262C207.009 316.69 206.057 317.6 204.783 317.6ZM213.685 309.928C214.049 309.928 214.385 310.054 214.651 310.236L215.141 308.92C214.749 308.64 214.161 308.514 213.559 308.514C211.823 308.514 210.885 309.536 210.885 311.104V311.58H209.653V312.98H210.885V319H212.635V312.98H214.637V311.58H212.579V311.132C212.579 310.334 212.957 309.928 213.685 309.928ZM224.088 317.348C223.822 317.558 223.472 317.656 223.108 317.656C222.436 317.656 222.072 317.264 222.072 316.536V312.98H224.074V311.58H222.072V309.872H220.322V311.58H219.09V312.98H220.322V316.578C220.322 318.23 221.26 319.098 222.898 319.098C223.528 319.098 224.158 318.93 224.578 318.594L224.088 317.348ZM230.46 311.44C229.424 311.44 228.542 311.776 227.968 312.392V308.612H226.218V319H227.968V315.22C227.968 313.722 228.808 312.966 230.054 312.966C231.174 312.966 231.832 313.61 231.832 314.94V319H233.582V314.716C233.582 312.462 232.252 311.44 230.46 311.44ZM239.43 319.098C241.754 319.098 243.42 317.502 243.42 315.262C243.42 313.022 241.754 311.44 239.43 311.44C237.134 311.44 235.454 313.022 235.454 315.262C235.454 317.502 237.134 319.098 239.43 319.098ZM239.43 317.6C238.17 317.6 237.218 316.69 237.218 315.262C237.218 313.834 238.17 312.924 239.43 312.924C240.704 312.924 241.656 313.834 241.656 315.262C241.656 316.69 240.704 317.6 239.43 317.6ZM250.781 311.524V315.304C250.781 316.802 249.955 317.558 248.737 317.558C247.631 317.558 246.987 316.914 246.987 315.556V311.524H245.237V315.794C245.237 318.048 246.539 319.098 248.457 319.098C249.423 319.098 250.305 318.734 250.865 318.048V319H252.531V311.524H250.781ZM260.777 311.524V312.518C260.161 311.776 259.237 311.44 258.187 311.44C256.045 311.44 254.407 312.868 254.407 315.038C254.407 317.208 256.045 318.664 258.187 318.664C259.195 318.664 260.077 318.342 260.693 317.67V318.062C260.693 319.574 259.965 320.33 258.313 320.33C257.277 320.33 256.213 319.98 255.555 319.434L254.771 320.75C255.625 321.45 257.011 321.814 258.411 321.814C261.029 321.814 262.443 320.582 262.443 317.866V311.524H260.777ZM258.453 317.18C257.123 317.18 256.171 316.312 256.171 315.038C256.171 313.778 257.123 312.924 258.453 312.924C259.769 312.924 260.721 313.778 260.721 315.038C260.721 316.312 259.769 317.18 258.453 317.18ZM269.185 311.44C268.149 311.44 267.267 311.776 266.693 312.392V308.612H264.943V319H266.693V315.22C266.693 313.722 267.533 312.966 268.779 312.966C269.899 312.966 270.557 313.61 270.557 314.94V319H272.307V314.716C272.307 312.462 270.977 311.44 269.185 311.44ZM278.731 317.348C278.465 317.558 278.115 317.656 277.751 317.656C277.079 317.656 276.715 317.264 276.715 316.536V312.98H278.717V311.58H276.715V309.872H274.965V311.58H273.733V312.98H274.965V316.578C274.965 318.23 275.903 319.098 277.541 319.098C278.171 319.098 278.801 318.93 279.221 318.594L278.731 317.348ZM281.558 319.098C282.188 319.098 282.706 318.608 282.706 317.936C282.706 317.236 282.188 316.774 281.558 316.774C280.928 316.774 280.41 317.236 280.41 317.936C280.41 318.608 280.928 319.098 281.558 319.098Z" fill="#737373"/>
<path d="M51.316 348H58.26V346.46H53.136V338.2H51.316V348ZM66.6885 344.304C66.6885 341.966 65.0925 340.44 62.9085 340.44C60.6825 340.44 59.0445 342.036 59.0445 344.262C59.0445 346.488 60.6685 348.098 63.1745 348.098C64.4625 348.098 65.5125 347.678 66.1845 346.88L65.2465 345.802C64.7145 346.348 64.0565 346.614 63.2165 346.614C61.9145 346.614 61.0045 345.914 60.7945 344.822H66.6605C66.6745 344.654 66.6885 344.444 66.6885 344.304ZM62.9085 341.84C64.0565 341.84 64.8825 342.582 65.0225 343.66H60.7805C60.9485 342.568 61.7745 341.84 62.9085 341.84ZM71.2204 340.44C70.0164 340.44 68.8544 340.748 68.0564 341.364L68.7424 342.638C69.3024 342.176 70.1704 341.896 71.0104 341.896C72.2564 341.896 72.8724 342.498 72.8724 343.52V343.632H70.9404C68.6724 343.632 67.8324 344.612 67.8324 345.858C67.8324 347.16 68.9104 348.098 70.6184 348.098C71.7384 348.098 72.5504 347.734 72.9704 347.09V348H74.6224V343.618C74.6224 341.462 73.3764 340.44 71.2204 340.44ZM70.9824 346.824C70.0864 346.824 69.5544 346.418 69.5544 345.788C69.5544 345.242 69.8764 344.794 71.0664 344.794H72.8724V345.662C72.5784 346.432 71.8364 346.824 70.9824 346.824ZM78.7343 341.616V340.524H77.0683V348H78.8183V344.374C78.8183 342.848 79.6583 342.064 80.9883 342.064C81.1143 342.064 81.2403 342.078 81.3943 342.106V340.44C80.1483 340.44 79.2383 340.832 78.7343 341.616ZM87.3209 340.44C86.2289 340.44 85.3189 340.804 84.7449 341.49V340.524H83.0789V348H84.8289V344.22C84.8289 342.722 85.6689 341.966 86.9149 341.966C88.0349 341.966 88.6929 342.61 88.6929 343.94V348H90.4429V343.716C90.4429 341.462 89.1129 340.44 87.3209 340.44ZM107.824 348L107.81 338.2H106.312L102.49 344.696L98.598 338.2H97.1V348H98.836V341.588L102.056 346.88H102.868L106.088 341.504L106.102 348H107.824ZM113.863 348.098C116.187 348.098 117.853 346.502 117.853 344.262C117.853 342.022 116.187 340.44 113.863 340.44C111.567 340.44 109.887 342.022 109.887 344.262C109.887 346.502 111.567 348.098 113.863 348.098ZM113.863 346.6C112.603 346.6 111.651 345.69 111.651 344.262C111.651 342.834 112.603 341.924 113.863 341.924C115.137 341.924 116.089 342.834 116.089 344.262C116.089 345.69 115.137 346.6 113.863 346.6ZM121.393 341.616V340.524H119.727V348H121.477V344.374C121.477 342.848 122.317 342.064 123.647 342.064C123.773 342.064 123.899 342.078 124.053 342.106V340.44C122.807 340.44 121.897 340.832 121.393 341.616ZM132.697 344.304C132.697 341.966 131.101 340.44 128.917 340.44C126.691 340.44 125.053 342.036 125.053 344.262C125.053 346.488 126.677 348.098 129.183 348.098C130.471 348.098 131.521 347.678 132.193 346.88L131.255 345.802C130.723 346.348 130.065 346.614 129.225 346.614C127.923 346.614 127.013 345.914 126.803 344.822H132.669C132.683 344.654 132.697 344.444 132.697 344.304ZM128.917 341.84C130.065 341.84 130.891 342.582 131.031 343.66H126.789C126.957 342.568 127.783 341.84 128.917 341.84Z" fill="#00A0C1"/>
<rect x="0.5" y="132.5" width="327" height="252" rx="10.5" stroke="#A9D6FF"/>
</g>
<defs>
<clipPath id="clip0">
<rect width="328" height="385" rx="10" fill="white"/>
</clipPath>
<clipPath id="clip1">
<rect width="23.8933" height="32" fill="white" transform="translate(58 50)"/>
</clipPath>
</defs>
</svg>
