<svg width="328" height="385" viewBox="0 0 328 385" fill="none" xmlns="http://www.w3.org/2000/svg">
<g clip-path="url(#clip0)">
<rect width="328" height="385" rx="10" fill="#D9EDFF"/>
<rect x="44" y="30" width="72" height="72" rx="36" fill="white"/>
<g clip-path="url(#clip1)">
<g clip-path="url(#clip2)">
<path d="M79.9029 65.7044C82.5034 65.7044 84.5259 63.5697 84.5259 60.9499C84.5259 58.3301 82.4071 56.2925 79.8066 56.2925C77.2062 56.2925 75.1836 58.4271 75.1836 60.9499C75.1836 63.5697 77.3025 65.7044 79.9029 65.7044ZM79.8066 58.2331C79.9029 58.2331 79.9029 58.2331 79.8066 58.2331C81.3476 58.2331 82.5997 59.4945 82.5997 61.047C82.5997 62.5994 81.3476 63.7638 79.8066 63.7638C78.2656 63.7638 77.1099 62.5024 77.1099 61.047C77.1099 59.4945 78.3619 58.2331 79.8066 58.2331Z" fill="#00A0C1"/>
<path d="M94.1585 65.122C92.3286 63.4725 89.9208 62.5992 87.4166 62.6963H86.6461C86.4535 63.4725 86.1645 64.1517 85.7793 64.7339C86.3572 64.6369 86.8387 64.6369 87.4166 64.6369C89.2466 64.5398 91.0765 65.122 92.5212 66.1894V73.1755H94.4475V65.4131L94.1585 65.122Z" fill="#00A0C1"/>
<path d="M85.2019 56.4859C85.6835 55.3215 87.0318 54.7394 88.2839 55.2245C89.4397 55.7097 90.0175 57.0681 89.536 58.3295C89.1507 59.2027 88.2839 59.7849 87.4171 59.7849C87.2245 59.7849 86.9355 59.7849 86.7429 59.6879C86.8392 60.173 86.8392 60.6582 86.8392 61.0463V61.6285C87.0318 61.6285 87.2245 61.7255 87.4171 61.7255C89.8249 61.7255 91.7512 59.7849 91.7512 57.4562C91.7512 55.0304 89.8249 53.0898 87.5134 53.0898C85.9724 53.0898 84.624 53.8661 83.8535 55.2245C84.3351 55.5156 84.8166 55.9037 85.2019 56.4859Z" fill="#00A0C1"/>
<path d="M74.2209 64.8306C73.8356 64.2484 73.5467 63.5692 73.3541 62.793H72.5836C70.0794 62.6959 67.6716 63.5692 65.8417 65.1217L65.5527 65.4128V73.1752H67.479V66.189C69.02 65.1217 70.7536 64.5395 72.5836 64.6365C73.1615 64.6365 73.7393 64.7336 74.2209 64.8306Z" fill="#00A0C1"/>
<path d="M72.5847 61.6291C72.7773 61.6291 72.9699 61.6291 73.1626 61.5321V60.9499C73.1626 60.4648 73.1626 59.9796 73.2589 59.5915C73.0663 59.6885 72.7773 59.6885 72.5847 59.6885C71.3326 59.6885 70.2732 58.6212 70.2732 57.3598C70.2732 56.0984 71.3326 55.0311 72.5847 55.0311C73.5478 55.0311 74.4146 55.6133 74.7999 56.4865C75.1851 56.0014 75.763 55.5162 76.2446 55.1281C74.9925 53.0905 72.3921 52.4113 70.3695 53.6727C68.3469 54.9341 67.6727 57.5539 68.9248 59.5915C69.6953 60.8529 71.0437 61.6291 72.5847 61.6291Z" fill="#00A0C1"/>
<path d="M87.8013 70.9435L87.6087 70.6524C85.6824 68.5177 82.9857 67.2563 80.0963 67.3534C77.2069 67.2563 74.4138 68.5177 72.4875 70.6524L72.2949 70.9435V78.3178C72.2949 79.1911 72.9691 79.9673 73.9322 79.9673H86.2603C87.1271 79.9673 87.8976 79.1911 87.8976 78.3178V70.9435H87.8013ZM85.875 78.0267H74.2212V71.6227C75.7622 70.0702 77.8811 69.294 80.0963 69.294C82.2152 69.1969 84.334 70.0702 85.875 71.6227V78.0267Z" fill="#00A0C1"/>
</g>
</g>
<path d="M135.864 67.248L137.848 60.816H140.456L142.424 67.248L144.648 60.816H147.352L143.448 72H141.592L139.144 64.224L136.712 72H134.856L130.952 60.816H133.656L135.864 67.248ZM155.989 70.752C155.018 71.6693 153.877 72.128 152.565 72.128C151.264 72.128 150.186 71.728 149.333 70.928C148.48 70.1173 148.053 69.0347 148.053 67.68C148.053 66.3253 148.485 65.248 149.349 64.448C150.224 63.648 151.253 63.248 152.437 63.248C153.621 63.248 154.624 63.6053 155.445 64.32C156.277 65.0347 156.693 66.016 156.693 67.264V68.544H150.421C150.496 69.0133 150.741 69.3973 151.157 69.696C151.573 69.9947 152.042 70.144 152.565 70.144C153.408 70.144 154.101 69.8613 154.645 69.296L155.989 70.752ZM154.261 66.832C154.208 66.32 154.016 65.9253 153.685 65.648C153.354 65.3707 152.949 65.232 152.469 65.232C152 65.232 151.568 65.376 151.173 65.664C150.778 65.952 150.549 66.3413 150.485 66.832H154.261ZM163.484 63.248C164.529 63.248 165.441 63.6587 166.22 64.48C166.998 65.2907 167.388 66.336 167.388 67.616C167.388 68.896 166.988 69.968 166.188 70.832C165.388 71.696 164.476 72.128 163.452 72.128C162.438 72.128 161.596 71.7067 160.924 70.864V72H158.524V60.128H160.924V64.352C161.585 63.616 162.438 63.248 163.484 63.248ZM160.892 67.712C160.892 68.4053 161.084 68.976 161.468 69.424C161.862 69.8613 162.337 70.08 162.892 70.08C163.446 70.08 163.932 69.8613 164.348 69.424C164.764 68.976 164.972 68.4053 164.972 67.712C164.972 67.0187 164.769 66.4373 164.364 65.968C163.958 65.4987 163.473 65.264 162.908 65.264C162.342 65.264 161.862 65.4987 161.468 65.968C161.084 66.4267 160.892 67.008 160.892 67.712ZM177.791 60.816C179.785 60.816 181.316 61.3067 182.383 62.288C183.449 63.2587 183.983 64.6133 183.983 66.352C183.983 68.0907 183.46 69.4667 182.415 70.48C181.38 71.4933 179.796 72 177.663 72H173.839V60.816H177.791ZM177.919 69.792C179.06 69.792 179.935 69.504 180.543 68.928C181.161 68.352 181.471 67.5147 181.471 66.416C181.471 65.3173 181.161 64.4747 180.543 63.888C179.935 63.2907 178.996 62.992 177.727 62.992H176.335V69.792H177.919ZM193.451 70.752C192.481 71.6693 191.339 72.128 190.027 72.128C188.726 72.128 187.649 71.728 186.795 70.928C185.942 70.1173 185.515 69.0347 185.515 67.68C185.515 66.3253 185.947 65.248 186.811 64.448C187.686 63.648 188.715 63.248 189.899 63.248C191.083 63.248 192.086 63.6053 192.907 64.32C193.739 65.0347 194.155 66.016 194.155 67.264V68.544H187.883C187.958 69.0133 188.203 69.3973 188.619 69.696C189.035 69.9947 189.505 70.144 190.027 70.144C190.87 70.144 191.563 69.8613 192.107 69.296L193.451 70.752ZM191.723 66.832C191.67 66.32 191.478 65.9253 191.147 65.648C190.817 65.3707 190.411 65.232 189.931 65.232C189.462 65.232 189.03 65.376 188.635 65.664C188.241 65.952 188.011 66.3413 187.947 66.832H191.723ZM198.181 72L194.773 63.376H197.269L199.413 68.8L201.557 63.376H204.053L200.645 72H198.181ZM212.792 70.752C211.821 71.6693 210.68 72.128 209.368 72.128C208.067 72.128 206.989 71.728 206.136 70.928C205.283 70.1173 204.856 69.0347 204.856 67.68C204.856 66.3253 205.288 65.248 206.152 64.448C207.027 63.648 208.056 63.248 209.24 63.248C210.424 63.248 211.427 63.6053 212.248 64.32C213.08 65.0347 213.496 66.016 213.496 67.264V68.544H207.224C207.299 69.0133 207.544 69.3973 207.96 69.696C208.376 69.9947 208.845 70.144 209.368 70.144C210.211 70.144 210.904 69.8613 211.448 69.296L212.792 70.752ZM211.064 66.832C211.011 66.32 210.819 65.9253 210.488 65.648C210.157 65.3707 209.752 65.232 209.272 65.232C208.803 65.232 208.371 65.376 207.976 65.664C207.581 65.952 207.352 66.3413 207.288 66.832H211.064ZM217.727 72H215.327V60.128H217.727V72ZM222.019 67.696C222.019 68.4 222.216 68.976 222.611 69.424C223.016 69.8613 223.528 70.08 224.147 70.08C224.776 70.08 225.288 69.8613 225.683 69.424C226.088 68.976 226.291 68.4 226.291 67.696C226.291 66.992 226.088 66.416 225.683 65.968C225.288 65.52 224.776 65.296 224.147 65.296C223.528 65.296 223.016 65.52 222.611 65.968C222.216 66.416 222.019 66.992 222.019 67.696ZM228.707 67.696C228.707 68.944 228.275 69.9947 227.411 70.848C226.547 71.7013 225.459 72.128 224.147 72.128C222.845 72.128 221.763 71.7013 220.899 70.848C220.035 69.9947 219.603 68.944 219.603 67.696C219.603 66.448 220.035 65.3973 220.899 64.544C221.763 63.68 222.845 63.248 224.147 63.248C225.459 63.248 226.547 63.68 227.411 64.544C228.275 65.3973 228.707 66.448 228.707 67.696ZM235.597 63.248C236.6 63.248 237.49 63.6693 238.269 64.512C239.058 65.344 239.453 66.3947 239.453 67.664C239.453 68.9333 239.058 69.9947 238.269 70.848C237.49 71.7013 236.573 72.128 235.517 72.128C234.472 72.128 233.629 71.7067 232.989 70.864V75.104H230.589V63.392H232.989V64.352C233.725 63.616 234.594 63.248 235.597 63.248ZM232.957 67.712C232.957 68.4053 233.149 68.976 233.533 69.424C233.928 69.8613 234.402 70.08 234.957 70.08C235.512 70.08 235.997 69.8613 236.413 69.424C236.829 68.976 237.037 68.4053 237.037 67.712C237.037 67.0187 236.834 66.4373 236.429 65.968C236.024 65.4987 235.538 65.264 234.973 65.264C234.408 65.264 233.928 65.4987 233.533 65.968C233.149 66.4267 232.957 67.008 232.957 67.712ZM249.249 67.36V72H246.833V67.296C246.833 66.6133 246.727 66.112 246.513 65.792C246.311 65.472 245.975 65.312 245.505 65.312C245.047 65.312 244.636 65.488 244.273 65.84C243.921 66.1813 243.745 66.688 243.745 67.36V72H241.345V63.392H243.745V64.368C244.407 63.6213 245.164 63.248 246.017 63.248C246.561 63.248 247.052 63.408 247.489 63.728C247.937 64.048 248.273 64.4373 248.497 64.896C248.828 64.3733 249.271 63.968 249.825 63.68C250.391 63.392 250.956 63.248 251.521 63.248C252.535 63.248 253.351 63.552 253.969 64.16C254.588 64.7573 254.897 65.6267 254.897 66.768V72H252.481V67.296C252.481 65.9733 251.996 65.312 251.025 65.312C250.545 65.312 250.129 65.488 249.777 65.84C249.425 66.1813 249.249 66.688 249.249 67.36ZM264.636 70.752C263.665 71.6693 262.524 72.128 261.212 72.128C259.91 72.128 258.833 71.728 257.98 70.928C257.126 70.1173 256.7 69.0347 256.7 67.68C256.7 66.3253 257.132 65.248 257.996 64.448C258.87 63.648 259.9 63.248 261.084 63.248C262.268 63.248 263.27 63.6053 264.092 64.32C264.924 65.0347 265.34 66.016 265.34 67.264V68.544H259.068C259.142 69.0133 259.388 69.3973 259.804 69.696C260.22 69.9947 260.689 70.144 261.212 70.144C262.054 70.144 262.748 69.8613 263.292 69.296L264.636 70.752ZM262.908 66.832C262.854 66.32 262.662 65.9253 262.332 65.648C262.001 65.3707 261.596 65.232 261.116 65.232C260.646 65.232 260.214 65.376 259.82 65.664C259.425 65.952 259.196 66.3413 259.132 66.832H262.908ZM269.57 67.2V72H267.17V63.392H269.57V64.352C270.296 63.616 271.112 63.248 272.018 63.248C272.925 63.248 273.682 63.568 274.29 64.208C274.909 64.848 275.218 65.7013 275.218 66.768V72H272.818V67.136C272.818 65.8133 272.333 65.152 271.362 65.152C270.882 65.152 270.461 65.328 270.098 65.68C269.746 66.0213 269.57 66.528 269.57 67.2ZM280.228 65.12V68.976C280.228 69.3067 280.313 69.568 280.484 69.76C280.655 69.9413 280.857 70.032 281.092 70.032C281.54 70.032 281.919 69.8293 282.228 69.424L283.124 71.104C282.377 71.7867 281.588 72.128 280.756 72.128C279.935 72.128 279.236 71.856 278.66 71.312C278.095 70.768 277.812 70.0267 277.812 69.088V65.12H276.804V63.392H277.812V60.816H280.228V63.392H282.308V65.12H280.228Z" fill="#252B42"/>
<rect x="0.5" y="132.5" width="327" height="252" rx="10.5" fill="white"/>
<path d="M50.77 175.836H54.62V174.38H50.77V175.836ZM67.029 179H68.849V170.74H72.097V169.2H63.781V170.74H67.029V179ZM77.7369 171.44C76.7009 171.44 75.8189 171.776 75.2449 172.392V168.612H73.4949V179H75.2449V175.22C75.2449 173.722 76.0849 172.966 77.3309 172.966C78.4509 172.966 79.1089 173.61 79.1089 174.94V179H80.8589V174.716C80.8589 172.462 79.5289 171.44 77.7369 171.44ZM90.3752 175.304C90.3752 172.966 88.7792 171.44 86.5952 171.44C84.3692 171.44 82.7312 173.036 82.7312 175.262C82.7312 177.488 84.3552 179.098 86.8612 179.098C88.1492 179.098 89.1992 178.678 89.8712 177.88L88.9332 176.802C88.4012 177.348 87.7432 177.614 86.9032 177.614C85.6012 177.614 84.6912 176.914 84.4812 175.822H90.3472C90.3612 175.654 90.3752 175.444 90.3752 175.304ZM86.5952 172.84C87.7432 172.84 88.5692 173.582 88.7092 174.66H84.4672C84.6352 173.568 85.4612 172.84 86.5952 172.84ZM100.469 171.44C99.5173 171.44 98.6773 171.762 98.0753 172.434V168.612H96.3253V179H97.9913V178.034C98.5793 178.748 99.4473 179.098 100.469 179.098C102.653 179.098 104.263 177.586 104.263 175.262C104.263 172.938 102.653 171.44 100.469 171.44ZM100.273 177.6C99.0133 177.6 98.0473 176.69 98.0473 175.262C98.0473 173.834 99.0133 172.924 100.273 172.924C101.533 172.924 102.485 173.834 102.485 175.262C102.485 176.69 101.533 177.6 100.273 177.6ZM113.151 175.304C113.151 172.966 111.555 171.44 109.371 171.44C107.145 171.44 105.507 173.036 105.507 175.262C105.507 177.488 107.131 179.098 109.637 179.098C110.925 179.098 111.975 178.678 112.647 177.88L111.709 176.802C111.177 177.348 110.519 177.614 109.679 177.614C108.377 177.614 107.467 176.914 107.257 175.822H113.123C113.137 175.654 113.151 175.444 113.151 175.304ZM109.371 172.84C110.519 172.84 111.345 173.582 111.485 174.66H107.243C107.411 173.568 108.237 172.84 109.371 172.84ZM117.342 179.098C119.442 179.098 120.73 178.188 120.73 176.788C120.73 173.862 116.11 175.206 116.11 173.694C116.11 173.204 116.614 172.854 117.678 172.854C118.392 172.854 119.106 172.994 119.82 173.414L120.492 172.084C119.82 171.678 118.686 171.44 117.692 171.44C115.676 171.44 114.402 172.364 114.402 173.778C114.402 176.76 119.022 175.416 119.022 176.844C119.022 177.362 118.56 177.67 117.454 177.67C116.516 177.67 115.508 177.362 114.85 176.928L114.178 178.258C114.85 178.734 116.096 179.098 117.342 179.098ZM126.441 177.348C126.175 177.558 125.825 177.656 125.461 177.656C124.789 177.656 124.425 177.264 124.425 176.536V172.98H126.427V171.58H124.425V169.872H122.675V171.58H121.443V172.98H122.675V176.578C122.675 178.23 123.613 179.098 125.251 179.098C125.881 179.098 126.511 178.93 126.931 178.594L126.441 177.348ZM136.784 171.44C135.762 171.44 134.894 171.79 134.306 172.504V171.524H132.64V181.716H134.39V178.09C134.992 178.776 135.832 179.098 136.784 179.098C138.968 179.098 140.578 177.586 140.578 175.262C140.578 172.952 138.968 171.44 136.784 171.44ZM136.588 177.6C135.328 177.6 134.362 176.69 134.362 175.262C134.362 173.834 135.328 172.924 136.588 172.924C137.848 172.924 138.8 173.834 138.8 175.262C138.8 176.69 137.848 177.6 136.588 177.6ZM144.103 172.616V171.524H142.437V179H144.187V175.374C144.187 173.848 145.027 173.064 146.357 173.064C146.483 173.064 146.609 173.078 146.763 173.106V171.44C145.517 171.44 144.607 171.832 144.103 172.616ZM151.74 179.098C154.064 179.098 155.73 177.502 155.73 175.262C155.73 173.022 154.064 171.44 151.74 171.44C149.444 171.44 147.764 173.022 147.764 175.262C147.764 177.502 149.444 179.098 151.74 179.098ZM151.74 177.6C150.48 177.6 149.528 176.69 149.528 175.262C149.528 173.834 150.48 172.924 151.74 172.924C153.014 172.924 153.966 173.834 153.966 175.262C153.966 176.69 153.014 177.6 151.74 177.6ZM163.175 168.612V172.448C162.587 171.762 161.733 171.44 160.767 171.44C158.597 171.44 156.987 172.938 156.987 175.262C156.987 177.586 158.597 179.098 160.767 179.098C161.789 179.098 162.657 178.748 163.245 178.034V179H164.925V168.612H163.175ZM160.977 177.6C159.717 177.6 158.751 176.69 158.751 175.262C158.751 173.834 159.717 172.924 160.977 172.924C162.237 172.924 163.203 173.834 163.203 175.262C163.203 176.69 162.237 177.6 160.977 177.6ZM172.902 171.524V175.304C172.902 176.802 172.076 177.558 170.858 177.558C169.752 177.558 169.108 176.914 169.108 175.556V171.524H167.358V175.794C167.358 178.048 168.66 179.098 170.578 179.098C171.544 179.098 172.426 178.734 172.986 178.048V179H174.652V171.524H172.902ZM180.574 179.098C182.03 179.098 183.192 178.468 183.766 177.348L182.422 176.564C181.974 177.278 181.302 177.6 180.56 177.6C179.272 177.6 178.292 176.718 178.292 175.262C178.292 173.82 179.272 172.924 180.56 172.924C181.302 172.924 181.974 173.246 182.422 173.96L183.766 173.176C183.192 172.042 182.03 171.44 180.574 171.44C178.208 171.44 176.528 173.022 176.528 175.262C176.528 177.502 178.208 179.098 180.574 179.098ZM189.578 177.348C189.312 177.558 188.962 177.656 188.598 177.656C187.926 177.656 187.562 177.264 187.562 176.536V172.98H189.564V171.58H187.562V169.872H185.812V171.58H184.58V172.98H185.812V176.578C185.812 178.23 186.75 179.098 188.388 179.098C189.018 179.098 189.648 178.93 190.068 178.594L189.578 177.348ZM194.018 179.098C196.118 179.098 197.406 178.188 197.406 176.788C197.406 173.862 192.786 175.206 192.786 173.694C192.786 173.204 193.29 172.854 194.354 172.854C195.068 172.854 195.782 172.994 196.496 173.414L197.168 172.084C196.496 171.678 195.362 171.44 194.368 171.44C192.352 171.44 191.078 172.364 191.078 173.778C191.078 176.76 195.698 175.416 195.698 176.844C195.698 177.362 195.236 177.67 194.13 177.67C193.192 177.67 192.184 177.362 191.526 176.928L190.854 178.258C191.526 178.734 192.772 179.098 194.018 179.098ZM205.492 179.098C207.592 179.098 208.88 178.188 208.88 176.788C208.88 173.862 204.26 175.206 204.26 173.694C204.26 173.204 204.764 172.854 205.828 172.854C206.542 172.854 207.256 172.994 207.97 173.414L208.642 172.084C207.97 171.678 206.836 171.44 205.842 171.44C203.826 171.44 202.552 172.364 202.552 173.778C202.552 176.76 207.172 175.416 207.172 176.844C207.172 177.362 206.71 177.67 205.604 177.67C204.666 177.67 203.658 177.362 203 176.928L202.328 178.258C203 178.734 204.246 179.098 205.492 179.098ZM214.591 177.348C214.325 177.558 213.975 177.656 213.611 177.656C212.939 177.656 212.575 177.264 212.575 176.536V172.98H214.577V171.58H212.575V169.872H210.825V171.58H209.593V172.98H210.825V176.578C210.825 178.23 211.763 179.098 213.401 179.098C214.031 179.098 214.661 178.93 215.081 178.594L214.591 177.348ZM219.577 171.44C218.373 171.44 217.211 171.748 216.413 172.364L217.099 173.638C217.659 173.176 218.527 172.896 219.367 172.896C220.613 172.896 221.229 173.498 221.229 174.52V174.632H219.297C217.029 174.632 216.189 175.612 216.189 176.858C216.189 178.16 217.267 179.098 218.975 179.098C220.095 179.098 220.907 178.734 221.327 178.09V179H222.979V174.618C222.979 172.462 221.733 171.44 219.577 171.44ZM219.339 177.824C218.443 177.824 217.911 177.418 217.911 176.788C217.911 176.242 218.233 175.794 219.423 175.794H221.229V176.662C220.935 177.432 220.193 177.824 219.339 177.824ZM227.091 172.616V171.524H225.425V179H227.175V175.374C227.175 173.848 228.015 173.064 229.345 173.064C229.471 173.064 229.597 173.078 229.751 173.106V171.44C228.505 171.44 227.595 171.832 227.091 172.616ZM235.713 177.348C235.447 177.558 235.097 177.656 234.733 177.656C234.061 177.656 233.697 177.264 233.697 176.536V172.98H235.699V171.58H233.697V169.872H231.947V171.58H230.715V172.98H231.947V176.578C231.947 178.23 232.885 179.098 234.523 179.098C235.153 179.098 235.783 178.93 236.203 178.594L235.713 177.348ZM61.256 195.524L59.226 201.068L57.21 195.524H55.74L53.682 201.04L51.708 195.524H50.056L52.8 203H54.48L56.44 197.848L58.372 203H60.052L62.81 195.524H61.256ZM65.0952 194.292C65.7532 194.292 66.2152 193.816 66.2152 193.2C66.2152 192.626 65.7392 192.192 65.0952 192.192C64.4512 192.192 63.9752 192.654 63.9752 193.242C63.9752 193.83 64.4512 194.292 65.0952 194.292ZM64.2132 203H65.9632V195.524H64.2132V203ZM72.4641 201.348C72.1981 201.558 71.8481 201.656 71.4841 201.656C70.8121 201.656 70.4481 201.264 70.4481 200.536V196.98H72.4501V195.58H70.4481V193.872H68.6981V195.58H67.4661V196.98H68.6981V200.578C68.6981 202.23 69.6361 203.098 71.2741 203.098C71.9041 203.098 72.5341 202.93 72.9541 202.594L72.4641 201.348ZM78.8357 195.44C77.7997 195.44 76.9177 195.776 76.3437 196.392V192.612H74.5937V203H76.3437V199.22C76.3437 197.722 77.1837 196.966 78.4297 196.966C79.5497 196.966 80.2077 197.61 80.2077 198.94V203H81.9577V198.716C81.9577 196.462 80.6277 195.44 78.8357 195.44ZM95.7688 194.726V193.2H88.6148V203H90.4348V199.248H95.1668V197.708H90.4348V194.726H95.7688ZM98.3062 194.292C98.9642 194.292 99.4262 193.816 99.4262 193.2C99.4262 192.626 98.9502 192.192 98.3062 192.192C97.6622 192.192 97.1862 192.654 97.1862 193.242C97.1862 193.83 97.6622 194.292 98.3062 194.292ZM97.4242 203H99.1742V195.524H97.4242V203ZM107.425 195.524V196.518C106.809 195.776 105.885 195.44 104.835 195.44C102.693 195.44 101.055 196.868 101.055 199.038C101.055 201.208 102.693 202.664 104.835 202.664C105.843 202.664 106.725 202.342 107.341 201.67V202.062C107.341 203.574 106.613 204.33 104.961 204.33C103.925 204.33 102.861 203.98 102.203 203.434L101.419 204.75C102.273 205.45 103.659 205.814 105.059 205.814C107.677 205.814 109.091 204.582 109.091 201.866V195.524H107.425ZM105.101 201.18C103.771 201.18 102.819 200.312 102.819 199.038C102.819 197.778 103.771 196.924 105.101 196.924C106.417 196.924 107.369 197.778 107.369 199.038C107.369 200.312 106.417 201.18 105.101 201.18ZM121.028 195.44C119.838 195.44 118.83 195.916 118.228 196.686C117.71 195.846 116.8 195.44 115.708 195.44C114.686 195.44 113.818 195.804 113.258 196.476V195.524H111.592V203H113.342V199.206C113.342 197.722 114.126 196.966 115.288 196.966C116.352 196.966 116.968 197.61 116.968 198.94V203H118.718V199.206C118.718 197.722 119.516 196.966 120.664 196.966C121.728 196.966 122.344 197.61 122.344 198.94V203H124.094V198.716C124.094 196.462 122.834 195.44 121.028 195.44ZM129.386 195.44C128.182 195.44 127.02 195.748 126.222 196.364L126.908 197.638C127.468 197.176 128.336 196.896 129.176 196.896C130.422 196.896 131.038 197.498 131.038 198.52V198.632H129.106C126.838 198.632 125.998 199.612 125.998 200.858C125.998 202.16 127.076 203.098 128.784 203.098C129.904 203.098 130.716 202.734 131.136 202.09V203H132.788V198.618C132.788 196.462 131.542 195.44 129.386 195.44ZM129.148 201.824C128.252 201.824 127.72 201.418 127.72 200.788C127.72 200.242 128.042 199.794 129.232 199.794H131.038V200.662C130.744 201.432 130.002 201.824 129.148 201.824Z" fill="#737373"/>
<path d="M50.77 228.836H54.62V227.38H50.77V228.836ZM60.9719 232H65.2559C68.4339 232 70.6039 230.04 70.6039 227.1C70.6039 224.16 68.4339 222.2 65.2559 222.2H60.9719V232ZM62.7919 230.46V223.74H65.1719C67.3559 223.74 68.7699 225.07 68.7699 227.1C68.7699 229.13 67.3559 230.46 65.1719 230.46H62.7919ZM79.5983 228.304C79.5983 225.966 78.0023 224.44 75.8183 224.44C73.5923 224.44 71.9543 226.036 71.9543 228.262C71.9543 230.488 73.5783 232.098 76.0843 232.098C77.3723 232.098 78.4223 231.678 79.0943 230.88L78.1563 229.802C77.6243 230.348 76.9663 230.614 76.1263 230.614C74.8243 230.614 73.9143 229.914 73.7043 228.822H79.5703C79.5843 228.654 79.5983 228.444 79.5983 228.304ZM75.8183 225.84C76.9663 225.84 77.7923 226.582 77.9323 227.66H73.6903C73.8583 226.568 74.6843 225.84 75.8183 225.84ZM83.7892 232.098C85.8892 232.098 87.1772 231.188 87.1772 229.788C87.1772 226.862 82.5572 228.206 82.5572 226.694C82.5572 226.204 83.0612 225.854 84.1252 225.854C84.8392 225.854 85.5532 225.994 86.2672 226.414L86.9392 225.084C86.2672 224.678 85.1332 224.44 84.1392 224.44C82.1232 224.44 80.8492 225.364 80.8492 226.778C80.8492 229.76 85.4692 228.416 85.4692 229.844C85.4692 230.362 85.0072 230.67 83.9012 230.67C82.9632 230.67 81.9552 230.362 81.2972 229.928L80.6252 231.258C81.2972 231.734 82.5432 232.098 83.7892 232.098ZM89.7663 223.292C90.4243 223.292 90.8863 222.816 90.8863 222.2C90.8863 221.626 90.4103 221.192 89.7663 221.192C89.1223 221.192 88.6463 221.654 88.6463 222.242C88.6463 222.83 89.1223 223.292 89.7663 223.292ZM88.8843 232H90.6343V224.524H88.8843V232ZM98.8852 224.524V225.518C98.2692 224.776 97.3452 224.44 96.2952 224.44C94.1532 224.44 92.5152 225.868 92.5152 228.038C92.5152 230.208 94.1532 231.664 96.2952 231.664C97.3032 231.664 98.1852 231.342 98.8012 230.67V231.062C98.8012 232.574 98.0732 233.33 96.4212 233.33C95.3852 233.33 94.3212 232.98 93.6632 232.434L92.8792 233.75C93.7332 234.45 95.1192 234.814 96.5192 234.814C99.1372 234.814 100.551 233.582 100.551 230.866V224.524H98.8852ZM96.5612 230.18C95.2312 230.18 94.2792 229.312 94.2792 228.038C94.2792 226.778 95.2312 225.924 96.5612 225.924C97.8772 225.924 98.8292 226.778 98.8292 228.038C98.8292 229.312 97.8772 230.18 96.5612 230.18ZM107.294 224.44C106.202 224.44 105.292 224.804 104.718 225.49V224.524H103.052V232H104.802V228.22C104.802 226.722 105.642 225.966 106.888 225.966C108.008 225.966 108.666 226.61 108.666 227.94V232H110.416V227.716C110.416 225.462 109.086 224.44 107.294 224.44ZM127.013 224.524L124.983 230.068L122.967 224.524H121.497L119.439 230.04L117.465 224.524H115.813L118.557 232H120.237L122.197 226.848L124.129 232H125.809L128.567 224.524H127.013ZM130.852 223.292C131.51 223.292 131.972 222.816 131.972 222.2C131.972 221.626 131.496 221.192 130.852 221.192C130.208 221.192 129.732 221.654 129.732 222.242C129.732 222.83 130.208 223.292 130.852 223.292ZM129.97 232H131.72V224.524H129.97V232ZM138.221 230.348C137.955 230.558 137.605 230.656 137.241 230.656C136.569 230.656 136.205 230.264 136.205 229.536V225.98H138.207V224.58H136.205V222.872H134.455V224.58H133.223V225.98H134.455V229.578C134.455 231.23 135.393 232.098 137.031 232.098C137.661 232.098 138.291 231.93 138.711 231.594L138.221 230.348ZM144.593 224.44C143.557 224.44 142.675 224.776 142.101 225.392V221.612H140.351V232H142.101V228.22C142.101 226.722 142.941 225.966 144.187 225.966C145.307 225.966 145.965 226.61 145.965 227.94V232H147.715V227.716C147.715 225.462 146.385 224.44 144.593 224.44ZM155.87 225.616V224.524H154.204V232H155.954V228.374C155.954 226.848 156.794 226.064 158.124 226.064C158.25 226.064 158.376 226.078 158.53 226.106V224.44C157.284 224.44 156.374 224.832 155.87 225.616ZM167.174 228.304C167.174 225.966 165.578 224.44 163.394 224.44C161.168 224.44 159.53 226.036 159.53 228.262C159.53 230.488 161.154 232.098 163.66 232.098C164.948 232.098 165.998 231.678 166.67 230.88L165.732 229.802C165.2 230.348 164.542 230.614 163.702 230.614C162.4 230.614 161.49 229.914 161.28 228.822H167.146C167.16 228.654 167.174 228.444 167.174 228.304ZM163.394 225.84C164.542 225.84 165.368 226.582 165.508 227.66H161.266C161.434 226.568 162.26 225.84 163.394 225.84ZM171.706 224.44C170.502 224.44 169.34 224.748 168.542 225.364L169.228 226.638C169.788 226.176 170.656 225.896 171.496 225.896C172.742 225.896 173.358 226.498 173.358 227.52V227.632H171.426C169.158 227.632 168.318 228.612 168.318 229.858C168.318 231.16 169.396 232.098 171.104 232.098C172.224 232.098 173.036 231.734 173.456 231.09V232H175.108V227.618C175.108 225.462 173.862 224.44 171.706 224.44ZM171.468 230.824C170.572 230.824 170.04 230.418 170.04 229.788C170.04 229.242 170.362 228.794 171.552 228.794H173.358V229.662C173.064 230.432 172.322 230.824 171.468 230.824ZM177.554 232H179.304V221.612H177.554V232ZM191.442 221.612V225.448C190.854 224.762 190 224.44 189.034 224.44C186.864 224.44 185.254 225.938 185.254 228.262C185.254 230.586 186.864 232.098 189.034 232.098C190.056 232.098 190.924 231.748 191.512 231.034V232H193.192V221.612H191.442ZM189.244 230.6C187.984 230.6 187.018 229.69 187.018 228.262C187.018 226.834 187.984 225.924 189.244 225.924C190.504 225.924 191.47 226.834 191.47 228.262C191.47 229.69 190.504 230.6 189.244 230.6ZM198.537 224.44C197.333 224.44 196.171 224.748 195.373 225.364L196.059 226.638C196.619 226.176 197.487 225.896 198.327 225.896C199.573 225.896 200.189 226.498 200.189 227.52V227.632H198.257C195.989 227.632 195.149 228.612 195.149 229.858C195.149 231.16 196.227 232.098 197.935 232.098C199.055 232.098 199.867 231.734 200.287 231.09V232H201.939V227.618C201.939 225.462 200.693 224.44 198.537 224.44ZM198.299 230.824C197.403 230.824 196.871 230.418 196.871 229.788C196.871 229.242 197.193 228.794 198.383 228.794H200.189V229.662C199.895 230.432 199.153 230.824 198.299 230.824ZM208.389 230.348C208.123 230.558 207.773 230.656 207.409 230.656C206.737 230.656 206.373 230.264 206.373 229.536V225.98H208.375V224.58H206.373V222.872H204.623V224.58H203.391V225.98H204.623V229.578C204.623 231.23 205.561 232.098 207.199 232.098C207.829 232.098 208.459 231.93 208.879 231.594L208.389 230.348ZM213.375 224.44C212.171 224.44 211.009 224.748 210.211 225.364L210.897 226.638C211.457 226.176 212.325 225.896 213.165 225.896C214.411 225.896 215.027 226.498 215.027 227.52V227.632H213.095C210.827 227.632 209.987 228.612 209.987 229.858C209.987 231.16 211.065 232.098 212.773 232.098C213.893 232.098 214.705 231.734 215.125 231.09V232H216.777V227.618C216.777 225.462 215.531 224.44 213.375 224.44ZM213.137 230.824C212.241 230.824 211.709 230.418 211.709 229.788C211.709 229.242 212.031 228.794 213.221 228.794H215.027V229.662C214.733 230.432 213.991 230.824 213.137 230.824Z" fill="#737373"/>
<path d="M50.77 257.836H54.62V256.38H50.77V257.836ZM60.9719 261H67.9159V259.46H62.7919V251.2H60.9719V261ZM70.2667 252.292C70.9247 252.292 71.3867 251.816 71.3867 251.2C71.3867 250.626 70.9107 250.192 70.2667 250.192C69.6227 250.192 69.1467 250.654 69.1467 251.242C69.1467 251.83 69.6227 252.292 70.2667 252.292ZM69.3847 261H71.1347V253.524H69.3847V261ZM79.3856 253.524V254.518C78.7696 253.776 77.8456 253.44 76.7956 253.44C74.6536 253.44 73.0156 254.868 73.0156 257.038C73.0156 259.208 74.6536 260.664 76.7956 260.664C77.8036 260.664 78.6856 260.342 79.3016 259.67V260.062C79.3016 261.574 78.5736 262.33 76.9216 262.33C75.8856 262.33 74.8216 261.98 74.1636 261.434L73.3796 262.75C74.2336 263.45 75.6196 263.814 77.0196 263.814C79.6376 263.814 81.0516 262.582 81.0516 259.866V253.524H79.3856ZM77.0616 259.18C75.7316 259.18 74.7796 258.312 74.7796 257.038C74.7796 255.778 75.7316 254.924 77.0616 254.924C78.3776 254.924 79.3296 255.778 79.3296 257.038C79.3296 258.312 78.3776 259.18 77.0616 259.18ZM87.7943 253.44C86.7583 253.44 85.8763 253.776 85.3023 254.392V250.612H83.5523V261H85.3023V257.22C85.3023 255.722 86.1423 254.966 87.3883 254.966C88.5083 254.966 89.1663 255.61 89.1663 256.94V261H90.9163V256.716C90.9163 254.462 89.5863 253.44 87.7943 253.44ZM97.3403 259.348C97.0743 259.558 96.7243 259.656 96.3603 259.656C95.6883 259.656 95.3243 259.264 95.3243 258.536V254.98H97.3263V253.58H95.3243V251.872H93.5743V253.58H92.3423V254.98H93.5743V258.578C93.5743 260.23 94.5123 261.098 96.1503 261.098C96.7803 261.098 97.4103 260.93 97.8303 260.594L97.3403 259.348ZM103.712 253.44C102.62 253.44 101.71 253.804 101.136 254.49V253.524H99.4699V261H101.22V257.22C101.22 255.722 102.06 254.966 103.306 254.966C104.426 254.966 105.084 255.61 105.084 256.94V261H106.834V256.716C106.834 254.462 105.504 253.44 103.712 253.44ZM110.136 252.292C110.794 252.292 111.256 251.816 111.256 251.2C111.256 250.626 110.78 250.192 110.136 250.192C109.492 250.192 109.016 250.654 109.016 251.242C109.016 251.83 109.492 252.292 110.136 252.292ZM109.254 261H111.004V253.524H109.254V261ZM117.743 253.44C116.651 253.44 115.741 253.804 115.167 254.49V253.524H113.501V261H115.251V257.22C115.251 255.722 116.091 254.966 117.337 254.966C118.457 254.966 119.115 255.61 119.115 256.94V261H120.865V256.716C120.865 254.462 119.535 253.44 117.743 253.44ZM129.107 253.524V254.518C128.491 253.776 127.567 253.44 126.517 253.44C124.375 253.44 122.737 254.868 122.737 257.038C122.737 259.208 124.375 260.664 126.517 260.664C127.525 260.664 128.407 260.342 129.023 259.67V260.062C129.023 261.574 128.295 262.33 126.643 262.33C125.607 262.33 124.543 261.98 123.885 261.434L123.101 262.75C123.955 263.45 125.341 263.814 126.741 263.814C129.359 263.814 130.773 262.582 130.773 259.866V253.524H129.107ZM126.783 259.18C125.453 259.18 124.501 258.312 124.501 257.038C124.501 255.778 125.453 254.924 126.783 254.924C128.099 254.924 129.051 255.778 129.051 257.038C129.051 258.312 128.099 259.18 126.783 259.18ZM140.381 251.928C140.745 251.928 141.081 252.054 141.347 252.236L141.837 250.92C141.445 250.64 140.857 250.514 140.255 250.514C138.519 250.514 137.581 251.536 137.581 253.104V253.58H136.349V254.98H137.581V261H139.331V254.98H141.333V253.58H139.275V253.132C139.275 252.334 139.653 251.928 140.381 251.928ZM145.43 253.44C144.226 253.44 143.064 253.748 142.266 254.364L142.952 255.638C143.512 255.176 144.38 254.896 145.22 254.896C146.466 254.896 147.082 255.498 147.082 256.52V256.632H145.15C142.882 256.632 142.042 257.612 142.042 258.858C142.042 260.16 143.12 261.098 144.828 261.098C145.948 261.098 146.76 260.734 147.18 260.09V261H148.832V256.618C148.832 254.462 147.586 253.44 145.43 253.44ZM145.192 259.824C144.296 259.824 143.764 259.418 143.764 258.788C143.764 258.242 144.086 257.794 145.276 257.794H147.082V258.662C146.788 259.432 146.046 259.824 145.192 259.824ZM153.588 261.098C155.688 261.098 156.976 260.188 156.976 258.788C156.976 255.862 152.356 257.206 152.356 255.694C152.356 255.204 152.86 254.854 153.924 254.854C154.638 254.854 155.352 254.994 156.066 255.414L156.738 254.084C156.066 253.678 154.932 253.44 153.938 253.44C151.922 253.44 150.648 254.364 150.648 255.778C150.648 258.76 155.268 257.416 155.268 258.844C155.268 259.362 154.806 259.67 153.7 259.67C152.762 259.67 151.754 259.362 151.096 258.928L150.424 260.258C151.096 260.734 152.342 261.098 153.588 261.098ZM162.687 259.348C162.421 259.558 162.071 259.656 161.707 259.656C161.035 259.656 160.671 259.264 160.671 258.536V254.98H162.673V253.58H160.671V251.872H158.921V253.58H157.689V254.98H158.921V258.578C158.921 260.23 159.859 261.098 161.497 261.098C162.127 261.098 162.757 260.93 163.177 260.594L162.687 259.348ZM173.03 253.44C172.008 253.44 171.14 253.79 170.552 254.504V253.524H168.886V263.716H170.636V260.09C171.238 260.776 172.078 261.098 173.03 261.098C175.214 261.098 176.824 259.586 176.824 257.262C176.824 254.952 175.214 253.44 173.03 253.44ZM172.834 259.6C171.574 259.6 170.608 258.69 170.608 257.262C170.608 255.834 171.574 254.924 172.834 254.924C174.094 254.924 175.046 255.834 175.046 257.262C175.046 258.69 174.094 259.6 172.834 259.6ZM180.35 254.616V253.524H178.684V261H180.434V257.374C180.434 255.848 181.274 255.064 182.604 255.064C182.73 255.064 182.856 255.078 183.01 255.106V253.44C181.764 253.44 180.854 253.832 180.35 254.616ZM187.986 261.098C190.31 261.098 191.976 259.502 191.976 257.262C191.976 255.022 190.31 253.44 187.986 253.44C185.69 253.44 184.01 255.022 184.01 257.262C184.01 259.502 185.69 261.098 187.986 261.098ZM187.986 259.6C186.726 259.6 185.774 258.69 185.774 257.262C185.774 255.834 186.726 254.924 187.986 254.924C189.26 254.924 190.212 255.834 190.212 257.262C190.212 258.69 189.26 259.6 187.986 259.6ZM197.853 259.348C197.587 259.558 197.237 259.656 196.873 259.656C196.201 259.656 195.837 259.264 195.837 258.536V254.98H197.839V253.58H195.837V251.872H194.087V253.58H192.855V254.98H194.087V258.578C194.087 260.23 195.025 261.098 196.663 261.098C197.293 261.098 197.923 260.93 198.343 260.594L197.853 259.348ZM203.097 261.098C205.421 261.098 207.087 259.502 207.087 257.262C207.087 255.022 205.421 253.44 203.097 253.44C200.801 253.44 199.121 255.022 199.121 257.262C199.121 259.502 200.801 261.098 203.097 261.098ZM203.097 259.6C201.837 259.6 200.885 258.69 200.885 257.262C200.885 255.834 201.837 254.924 203.097 254.924C204.371 254.924 205.323 255.834 205.323 257.262C205.323 258.69 204.371 259.6 203.097 259.6ZM212.964 259.348C212.698 259.558 212.348 259.656 211.984 259.656C211.312 259.656 210.948 259.264 210.948 258.536V254.98H212.95V253.58H210.948V251.872H209.198V253.58H207.966V254.98H209.198V258.578C209.198 260.23 210.136 261.098 211.774 261.098C212.404 261.098 213.034 260.93 213.454 260.594L212.964 259.348ZM220.277 253.524L217.911 259.054L215.559 253.524H213.739L217.001 261.028L216.875 261.322C216.539 262.064 216.175 262.358 215.559 262.358C215.083 262.358 214.607 262.162 214.271 261.84L213.571 263.128C214.047 263.562 214.831 263.814 215.573 263.814C216.819 263.814 217.771 263.296 218.457 261.602L221.957 253.524H220.277ZM227.395 253.44C226.373 253.44 225.505 253.79 224.917 254.504V253.524H223.251V263.716H225.001V260.09C225.603 260.776 226.443 261.098 227.395 261.098C229.579 261.098 231.189 259.586 231.189 257.262C231.189 254.952 229.579 253.44 227.395 253.44ZM227.199 259.6C225.939 259.6 224.973 258.69 224.973 257.262C224.973 255.834 225.939 254.924 227.199 254.924C228.459 254.924 229.411 255.834 229.411 257.262C229.411 258.69 228.459 259.6 227.199 259.6ZM233.93 252.292C234.588 252.292 235.05 251.816 235.05 251.2C235.05 250.626 234.574 250.192 233.93 250.192C233.286 250.192 232.81 250.654 232.81 251.242C232.81 251.83 233.286 252.292 233.93 252.292ZM233.048 261H234.798V253.524H233.048V261ZM241.537 253.44C240.445 253.44 239.535 253.804 238.961 254.49V253.524H237.295V261H239.045V257.22C239.045 255.722 239.885 254.966 241.131 254.966C242.251 254.966 242.909 255.61 242.909 256.94V261H244.659V256.716C244.659 254.462 243.329 253.44 241.537 253.44ZM252.902 253.524V254.518C252.286 253.776 251.362 253.44 250.312 253.44C248.17 253.44 246.532 254.868 246.532 257.038C246.532 259.208 248.17 260.664 250.312 260.664C251.32 260.664 252.202 260.342 252.818 259.67V260.062C252.818 261.574 252.09 262.33 250.438 262.33C249.402 262.33 248.338 261.98 247.68 261.434L246.896 262.75C247.75 263.45 249.136 263.814 250.536 263.814C253.154 263.814 254.568 262.582 254.568 259.866V253.524H252.902ZM250.578 259.18C249.248 259.18 248.296 258.312 248.296 257.038C248.296 255.778 249.248 254.924 250.578 254.924C251.894 254.924 252.846 255.778 252.846 257.038C252.846 258.312 251.894 259.18 250.578 259.18Z" fill="#737373"/>
<path d="M50.77 286.836H54.62V285.38H50.77V286.836ZM68.1259 281.726V280.2H60.9719V290H62.7919V286.248H67.5239V284.708H62.7919V281.726H68.1259ZM72.5415 282.44C71.3375 282.44 70.1755 282.748 69.3775 283.364L70.0635 284.638C70.6235 284.176 71.4915 283.896 72.3315 283.896C73.5775 283.896 74.1935 284.498 74.1935 285.52V285.632H72.2615C69.9935 285.632 69.1535 286.612 69.1535 287.858C69.1535 289.16 70.2315 290.098 71.9395 290.098C73.0595 290.098 73.8715 289.734 74.2915 289.09V290H75.9435V285.618C75.9435 283.462 74.6975 282.44 72.5415 282.44ZM72.3035 288.824C71.4075 288.824 70.8755 288.418 70.8755 287.788C70.8755 287.242 71.1975 286.794 72.3875 286.794H74.1935V287.662C73.8995 288.432 73.1575 288.824 72.3035 288.824ZM80.6994 290.098C82.7994 290.098 84.0874 289.188 84.0874 287.788C84.0874 284.862 79.4674 286.206 79.4674 284.694C79.4674 284.204 79.9714 283.854 81.0354 283.854C81.7494 283.854 82.4634 283.994 83.1774 284.414L83.8494 283.084C83.1774 282.678 82.0434 282.44 81.0494 282.44C79.0334 282.44 77.7594 283.364 77.7594 284.778C77.7594 287.76 82.3794 286.416 82.3794 287.844C82.3794 288.362 81.9174 288.67 80.8114 288.67C79.8734 288.67 78.8654 288.362 78.2074 287.928L77.5354 289.258C78.2074 289.734 79.4534 290.098 80.6994 290.098ZM89.7985 288.348C89.5325 288.558 89.1825 288.656 88.8185 288.656C88.1465 288.656 87.7825 288.264 87.7825 287.536V283.98H89.7845V282.58H87.7825V280.872H86.0325V282.58H84.8005V283.98H86.0325V287.578C86.0325 289.23 86.9705 290.098 88.6085 290.098C89.2385 290.098 89.8685 289.93 90.2885 289.594L89.7985 288.348ZM98.71 286.304C98.71 283.966 97.114 282.44 94.93 282.44C92.704 282.44 91.066 284.036 91.066 286.262C91.066 288.488 92.69 290.098 95.196 290.098C96.484 290.098 97.534 289.678 98.206 288.88L97.268 287.802C96.736 288.348 96.078 288.614 95.238 288.614C93.936 288.614 93.026 287.914 92.816 286.822H98.682C98.696 286.654 98.71 286.444 98.71 286.304ZM94.93 283.84C96.078 283.84 96.904 284.582 97.044 285.66H92.802C92.97 284.568 93.796 283.84 94.93 283.84ZM102.901 290.098C105.001 290.098 106.289 289.188 106.289 287.788C106.289 284.862 101.669 286.206 101.669 284.694C101.669 284.204 102.173 283.854 103.237 283.854C103.951 283.854 104.665 283.994 105.379 284.414L106.051 283.084C105.379 282.678 104.245 282.44 103.251 282.44C101.235 282.44 99.961 283.364 99.961 284.778C99.961 287.76 104.581 286.416 104.581 287.844C104.581 288.362 104.119 288.67 103.013 288.67C102.075 288.67 101.067 288.362 100.409 287.928L99.737 289.258C100.409 289.734 101.655 290.098 102.901 290.098ZM112 288.348C111.734 288.558 111.384 288.656 111.02 288.656C110.348 288.656 109.984 288.264 109.984 287.536V283.98H111.986V282.58H109.984V280.872H108.234V282.58H107.002V283.98H108.234V287.578C108.234 289.23 109.172 290.098 110.81 290.098C111.44 290.098 112.07 289.93 112.49 289.594L112 288.348ZM128.307 282.524L126.277 288.068L124.261 282.524H122.791L120.733 288.04L118.759 282.524H117.107L119.851 290H121.531L123.491 284.848L125.423 290H127.103L129.861 282.524H128.307ZM133.888 282.44C132.684 282.44 131.522 282.748 130.724 283.364L131.41 284.638C131.97 284.176 132.838 283.896 133.678 283.896C134.924 283.896 135.54 284.498 135.54 285.52V285.632H133.608C131.34 285.632 130.5 286.612 130.5 287.858C130.5 289.16 131.578 290.098 133.286 290.098C134.406 290.098 135.218 289.734 135.638 289.09V290H137.29V285.618C137.29 283.462 136.044 282.44 133.888 282.44ZM133.65 288.824C132.754 288.824 132.222 288.418 132.222 287.788C132.222 287.242 132.544 286.794 133.734 286.794H135.54V287.662C135.246 288.432 134.504 288.824 133.65 288.824ZM144.919 282.524L142.553 288.054L140.201 282.524H138.381L141.643 290.028L141.517 290.322C141.181 291.064 140.817 291.358 140.201 291.358C139.725 291.358 139.249 291.162 138.913 290.84L138.213 292.128C138.689 292.562 139.473 292.814 140.215 292.814C141.461 292.814 142.413 292.296 143.099 290.602L146.599 282.524H144.919ZM155.966 288.348C155.7 288.558 155.35 288.656 154.986 288.656C154.314 288.656 153.95 288.264 153.95 287.536V283.98H155.952V282.58H153.95V280.872H152.2V282.58H150.968V283.98H152.2V287.578C152.2 289.23 153.138 290.098 154.776 290.098C155.406 290.098 156.036 289.93 156.456 289.594L155.966 288.348ZM161.209 290.098C163.533 290.098 165.199 288.502 165.199 286.262C165.199 284.022 163.533 282.44 161.209 282.44C158.913 282.44 157.233 284.022 157.233 286.262C157.233 288.502 158.913 290.098 161.209 290.098ZM161.209 288.6C159.949 288.6 158.997 287.69 158.997 286.262C158.997 284.834 159.949 283.924 161.209 283.924C162.483 283.924 163.435 284.834 163.435 286.262C163.435 287.69 162.483 288.6 161.209 288.6ZM174.502 290.098C176.826 290.098 178.492 288.502 178.492 286.262C178.492 284.022 176.826 282.44 174.502 282.44C172.206 282.44 170.526 284.022 170.526 286.262C170.526 288.502 172.206 290.098 174.502 290.098ZM174.502 288.6C173.242 288.6 172.29 287.69 172.29 286.262C172.29 284.834 173.242 283.924 174.502 283.924C175.776 283.924 176.728 284.834 176.728 286.262C176.728 287.69 175.776 288.6 174.502 288.6ZM182.031 283.616V282.524H180.365V290H182.115V286.374C182.115 284.848 182.955 284.064 184.285 284.064C184.411 284.064 184.537 284.078 184.691 284.106V282.44C183.445 282.44 182.535 282.832 182.031 283.616ZM192.061 282.524V283.518C191.445 282.776 190.521 282.44 189.471 282.44C187.329 282.44 185.691 283.868 185.691 286.038C185.691 288.208 187.329 289.664 189.471 289.664C190.479 289.664 191.361 289.342 191.977 288.67V289.062C191.977 290.574 191.249 291.33 189.597 291.33C188.561 291.33 187.497 290.98 186.839 290.434L186.055 291.75C186.909 292.45 188.295 292.814 189.695 292.814C192.313 292.814 193.727 291.582 193.727 288.866V282.524H192.061ZM189.737 288.18C188.407 288.18 187.455 287.312 187.455 286.038C187.455 284.778 188.407 283.924 189.737 283.924C191.053 283.924 192.005 284.778 192.005 286.038C192.005 287.312 191.053 288.18 189.737 288.18ZM199.084 282.44C197.88 282.44 196.718 282.748 195.92 283.364L196.606 284.638C197.166 284.176 198.034 283.896 198.874 283.896C200.12 283.896 200.736 284.498 200.736 285.52V285.632H198.804C196.536 285.632 195.696 286.612 195.696 287.858C195.696 289.16 196.774 290.098 198.482 290.098C199.602 290.098 200.414 289.734 200.834 289.09V290H202.486V285.618C202.486 283.462 201.24 282.44 199.084 282.44ZM198.846 288.824C197.95 288.824 197.418 288.418 197.418 287.788C197.418 287.242 197.74 286.794 198.93 286.794H200.736V287.662C200.442 288.432 199.7 288.824 198.846 288.824ZM209.174 282.44C208.082 282.44 207.172 282.804 206.598 283.49V282.524H204.932V290H206.682V286.22C206.682 284.722 207.522 283.966 208.768 283.966C209.888 283.966 210.546 284.61 210.546 285.94V290H212.296V285.716C212.296 283.462 210.966 282.44 209.174 282.44ZM215.598 281.292C216.256 281.292 216.718 280.816 216.718 280.2C216.718 279.626 216.242 279.192 215.598 279.192C214.954 279.192 214.478 279.654 214.478 280.242C214.478 280.83 214.954 281.292 215.598 281.292ZM214.716 290H216.466V282.524H214.716V290ZM220.573 288.6L224.689 283.63V282.524H218.431V283.924H222.449L218.347 288.894V290H224.801V288.6H220.573ZM233.533 286.304C233.533 283.966 231.937 282.44 229.753 282.44C227.527 282.44 225.889 284.036 225.889 286.262C225.889 288.488 227.513 290.098 230.019 290.098C231.307 290.098 232.357 289.678 233.029 288.88L232.091 287.802C231.559 288.348 230.901 288.614 230.061 288.614C228.759 288.614 227.849 287.914 227.639 286.822H233.505C233.519 286.654 233.533 286.444 233.533 286.304ZM229.753 283.84C230.901 283.84 231.727 284.582 231.867 285.66H227.625C227.793 284.568 228.619 283.84 229.753 283.84Z" fill="#737373"/>
<path d="M50.77 315.836H54.62V314.38H50.77V315.836ZM73.5579 309.2L71.0519 316.69L68.5739 309.2H66.8939L64.3599 316.648L61.9239 309.2H60.0339L63.2819 319H65.2279L67.6919 311.748L70.1139 319H72.0459L75.2939 309.2H73.5579ZM79.608 319.098C81.932 319.098 83.598 317.502 83.598 315.262C83.598 313.022 81.932 311.44 79.608 311.44C77.312 311.44 75.632 313.022 75.632 315.262C75.632 317.502 77.312 319.098 79.608 319.098ZM79.608 317.6C78.348 317.6 77.396 316.69 77.396 315.262C77.396 313.834 78.348 312.924 79.608 312.924C80.882 312.924 81.834 313.834 81.834 315.262C81.834 316.69 80.882 317.6 79.608 317.6ZM87.1374 312.616V311.524H85.4714V319H87.2214V315.374C87.2214 313.848 88.0614 313.064 89.3914 313.064C89.5174 313.064 89.6434 313.078 89.7974 313.106V311.44C88.5514 311.44 87.6414 311.832 87.1374 312.616ZM97.124 319H99.252L95.836 314.66L98.958 311.524H96.858L93.232 314.884V308.612H91.482V319H93.232V317.026L94.534 315.794L97.124 319ZM107.508 311.44C106.304 311.44 105.142 311.748 104.344 312.364L105.03 313.638C105.59 313.176 106.458 312.896 107.298 312.896C108.544 312.896 109.16 313.498 109.16 314.52V314.632H107.228C104.96 314.632 104.12 315.612 104.12 316.858C104.12 318.16 105.198 319.098 106.906 319.098C108.026 319.098 108.838 318.734 109.258 318.09V319H110.91V314.618C110.91 312.462 109.664 311.44 107.508 311.44ZM107.27 317.824C106.374 317.824 105.842 317.418 105.842 316.788C105.842 316.242 106.164 315.794 107.354 315.794H109.16V316.662C108.866 317.432 108.124 317.824 107.27 317.824ZM117.359 317.348C117.093 317.558 116.743 317.656 116.379 317.656C115.707 317.656 115.343 317.264 115.343 316.536V312.98H117.345V311.58H115.343V309.872H113.593V311.58H112.361V312.98H113.593V316.578C113.593 318.23 114.531 319.098 116.169 319.098C116.799 319.098 117.429 318.93 117.849 318.594L117.359 317.348ZM127.562 317.348C127.296 317.558 126.946 317.656 126.582 317.656C125.91 317.656 125.546 317.264 125.546 316.536V312.98H127.548V311.58H125.546V309.872H123.796V311.58H122.564V312.98H123.796V316.578C123.796 318.23 124.734 319.098 126.372 319.098C127.002 319.098 127.632 318.93 128.052 318.594L127.562 317.348ZM133.934 311.44C132.898 311.44 132.016 311.776 131.442 312.392V308.612H129.692V319H131.442V315.22C131.442 313.722 132.282 312.966 133.528 312.966C134.648 312.966 135.306 313.61 135.306 314.94V319H137.056V314.716C137.056 312.462 135.726 311.44 133.934 311.44ZM146.572 315.304C146.572 312.966 144.976 311.44 142.792 311.44C140.566 311.44 138.928 313.036 138.928 315.262C138.928 317.488 140.552 319.098 143.058 319.098C144.346 319.098 145.396 318.678 146.068 317.88L145.13 316.802C144.598 317.348 143.94 317.614 143.1 317.614C141.798 317.614 140.888 316.914 140.678 315.822H146.544C146.558 315.654 146.572 315.444 146.572 315.304ZM142.792 312.84C143.94 312.84 144.766 313.582 144.906 314.66H140.664C140.832 313.568 141.658 312.84 142.792 312.84ZM154.832 319.098C156.932 319.098 158.22 318.188 158.22 316.788C158.22 313.862 153.6 315.206 153.6 313.694C153.6 313.204 154.104 312.854 155.168 312.854C155.882 312.854 156.596 312.994 157.31 313.414L157.982 312.084C157.31 311.678 156.176 311.44 155.182 311.44C153.166 311.44 151.892 312.364 151.892 313.778C151.892 316.76 156.512 315.416 156.512 316.844C156.512 317.362 156.05 317.67 154.944 317.67C154.006 317.67 152.998 317.362 152.34 316.928L151.668 318.258C152.34 318.734 153.586 319.098 154.832 319.098ZM164.071 311.44C163.049 311.44 162.181 311.79 161.593 312.504V311.524H159.927V321.716H161.677V318.09C162.279 318.776 163.119 319.098 164.071 319.098C166.255 319.098 167.865 317.586 167.865 315.262C167.865 312.952 166.255 311.44 164.071 311.44ZM163.875 317.6C162.615 317.6 161.649 316.69 161.649 315.262C161.649 313.834 162.615 312.924 163.875 312.924C165.135 312.924 166.087 313.834 166.087 315.262C166.087 316.69 165.135 317.6 163.875 317.6ZM176.753 315.304C176.753 312.966 175.157 311.44 172.973 311.44C170.747 311.44 169.109 313.036 169.109 315.262C169.109 317.488 170.733 319.098 173.239 319.098C174.527 319.098 175.577 318.678 176.249 317.88L175.311 316.802C174.779 317.348 174.121 317.614 173.281 317.614C171.979 317.614 171.069 316.914 170.859 315.822H176.725C176.739 315.654 176.753 315.444 176.753 315.304ZM172.973 312.84C174.121 312.84 174.947 313.582 175.087 314.66H170.845C171.013 313.568 171.839 312.84 172.973 312.84ZM185.662 315.304C185.662 312.966 184.066 311.44 181.882 311.44C179.656 311.44 178.018 313.036 178.018 315.262C178.018 317.488 179.642 319.098 182.148 319.098C183.436 319.098 184.486 318.678 185.158 317.88L184.22 316.802C183.688 317.348 183.03 317.614 182.19 317.614C180.888 317.614 179.978 316.914 179.768 315.822H185.634C185.648 315.654 185.662 315.444 185.662 315.304ZM181.882 312.84C183.03 312.84 183.856 313.582 183.996 314.66H179.754C179.922 313.568 180.748 312.84 181.882 312.84ZM193.115 308.612V312.448C192.527 311.762 191.673 311.44 190.707 311.44C188.537 311.44 186.927 312.938 186.927 315.262C186.927 317.586 188.537 319.098 190.707 319.098C191.729 319.098 192.597 318.748 193.185 318.034V319H194.865V308.612H193.115ZM190.917 317.6C189.657 317.6 188.691 316.69 188.691 315.262C188.691 313.834 189.657 312.924 190.917 312.924C192.177 312.924 193.143 313.834 193.143 315.262C193.143 316.69 192.177 317.6 190.917 317.6ZM204.783 319.098C207.107 319.098 208.773 317.502 208.773 315.262C208.773 313.022 207.107 311.44 204.783 311.44C202.487 311.44 200.807 313.022 200.807 315.262C200.807 317.502 202.487 319.098 204.783 319.098ZM204.783 317.6C203.523 317.6 202.571 316.69 202.571 315.262C202.571 313.834 203.523 312.924 204.783 312.924C206.057 312.924 207.009 313.834 207.009 315.262C207.009 316.69 206.057 317.6 204.783 317.6ZM213.685 309.928C214.049 309.928 214.385 310.054 214.651 310.236L215.141 308.92C214.749 308.64 214.161 308.514 213.559 308.514C211.823 308.514 210.885 309.536 210.885 311.104V311.58H209.653V312.98H210.885V319H212.635V312.98H214.637V311.58H212.579V311.132C212.579 310.334 212.957 309.928 213.685 309.928ZM224.088 317.348C223.822 317.558 223.472 317.656 223.108 317.656C222.436 317.656 222.072 317.264 222.072 316.536V312.98H224.074V311.58H222.072V309.872H220.322V311.58H219.09V312.98H220.322V316.578C220.322 318.23 221.26 319.098 222.898 319.098C223.528 319.098 224.158 318.93 224.578 318.594L224.088 317.348ZM230.46 311.44C229.424 311.44 228.542 311.776 227.968 312.392V308.612H226.218V319H227.968V315.22C227.968 313.722 228.808 312.966 230.054 312.966C231.174 312.966 231.832 313.61 231.832 314.94V319H233.582V314.716C233.582 312.462 232.252 311.44 230.46 311.44ZM239.43 319.098C241.754 319.098 243.42 317.502 243.42 315.262C243.42 313.022 241.754 311.44 239.43 311.44C237.134 311.44 235.454 313.022 235.454 315.262C235.454 317.502 237.134 319.098 239.43 319.098ZM239.43 317.6C238.17 317.6 237.218 316.69 237.218 315.262C237.218 313.834 238.17 312.924 239.43 312.924C240.704 312.924 241.656 313.834 241.656 315.262C241.656 316.69 240.704 317.6 239.43 317.6ZM250.781 311.524V315.304C250.781 316.802 249.955 317.558 248.737 317.558C247.631 317.558 246.987 316.914 246.987 315.556V311.524H245.237V315.794C245.237 318.048 246.539 319.098 248.457 319.098C249.423 319.098 250.305 318.734 250.865 318.048V319H252.531V311.524H250.781ZM260.777 311.524V312.518C260.161 311.776 259.237 311.44 258.187 311.44C256.045 311.44 254.407 312.868 254.407 315.038C254.407 317.208 256.045 318.664 258.187 318.664C259.195 318.664 260.077 318.342 260.693 317.67V318.062C260.693 319.574 259.965 320.33 258.313 320.33C257.277 320.33 256.213 319.98 255.555 319.434L254.771 320.75C255.625 321.45 257.011 321.814 258.411 321.814C261.029 321.814 262.443 320.582 262.443 317.866V311.524H260.777ZM258.453 317.18C257.123 317.18 256.171 316.312 256.171 315.038C256.171 313.778 257.123 312.924 258.453 312.924C259.769 312.924 260.721 313.778 260.721 315.038C260.721 316.312 259.769 317.18 258.453 317.18ZM269.185 311.44C268.149 311.44 267.267 311.776 266.693 312.392V308.612H264.943V319H266.693V315.22C266.693 313.722 267.533 312.966 268.779 312.966C269.899 312.966 270.557 313.61 270.557 314.94V319H272.307V314.716C272.307 312.462 270.977 311.44 269.185 311.44ZM278.731 317.348C278.465 317.558 278.115 317.656 277.751 317.656C277.079 317.656 276.715 317.264 276.715 316.536V312.98H278.717V311.58H276.715V309.872H274.965V311.58H273.733V312.98H274.965V316.578C274.965 318.23 275.903 319.098 277.541 319.098C278.171 319.098 278.801 318.93 279.221 318.594L278.731 317.348ZM281.558 319.098C282.188 319.098 282.706 318.608 282.706 317.936C282.706 317.236 282.188 316.774 281.558 316.774C280.928 316.774 280.41 317.236 280.41 317.936C280.41 318.608 280.928 319.098 281.558 319.098Z" fill="#737373"/>
<path d="M51.316 348H58.26V346.46H53.136V338.2H51.316V348ZM66.6885 344.304C66.6885 341.966 65.0925 340.44 62.9085 340.44C60.6825 340.44 59.0445 342.036 59.0445 344.262C59.0445 346.488 60.6685 348.098 63.1745 348.098C64.4625 348.098 65.5125 347.678 66.1845 346.88L65.2465 345.802C64.7145 346.348 64.0565 346.614 63.2165 346.614C61.9145 346.614 61.0045 345.914 60.7945 344.822H66.6605C66.6745 344.654 66.6885 344.444 66.6885 344.304ZM62.9085 341.84C64.0565 341.84 64.8825 342.582 65.0225 343.66H60.7805C60.9485 342.568 61.7745 341.84 62.9085 341.84ZM71.2204 340.44C70.0164 340.44 68.8544 340.748 68.0564 341.364L68.7424 342.638C69.3024 342.176 70.1704 341.896 71.0104 341.896C72.2564 341.896 72.8724 342.498 72.8724 343.52V343.632H70.9404C68.6724 343.632 67.8324 344.612 67.8324 345.858C67.8324 347.16 68.9104 348.098 70.6184 348.098C71.7384 348.098 72.5504 347.734 72.9704 347.09V348H74.6224V343.618C74.6224 341.462 73.3764 340.44 71.2204 340.44ZM70.9824 346.824C70.0864 346.824 69.5544 346.418 69.5544 345.788C69.5544 345.242 69.8764 344.794 71.0664 344.794H72.8724V345.662C72.5784 346.432 71.8364 346.824 70.9824 346.824ZM78.7343 341.616V340.524H77.0683V348H78.8183V344.374C78.8183 342.848 79.6583 342.064 80.9883 342.064C81.1143 342.064 81.2403 342.078 81.3943 342.106V340.44C80.1483 340.44 79.2383 340.832 78.7343 341.616ZM87.3209 340.44C86.2289 340.44 85.3189 340.804 84.7449 341.49V340.524H83.0789V348H84.8289V344.22C84.8289 342.722 85.6689 341.966 86.9149 341.966C88.0349 341.966 88.6929 342.61 88.6929 343.94V348H90.4429V343.716C90.4429 341.462 89.1129 340.44 87.3209 340.44ZM107.824 348L107.81 338.2H106.312L102.49 344.696L98.598 338.2H97.1V348H98.836V341.588L102.056 346.88H102.868L106.088 341.504L106.102 348H107.824ZM113.863 348.098C116.187 348.098 117.853 346.502 117.853 344.262C117.853 342.022 116.187 340.44 113.863 340.44C111.567 340.44 109.887 342.022 109.887 344.262C109.887 346.502 111.567 348.098 113.863 348.098ZM113.863 346.6C112.603 346.6 111.651 345.69 111.651 344.262C111.651 342.834 112.603 341.924 113.863 341.924C115.137 341.924 116.089 342.834 116.089 344.262C116.089 345.69 115.137 346.6 113.863 346.6ZM121.393 341.616V340.524H119.727V348H121.477V344.374C121.477 342.848 122.317 342.064 123.647 342.064C123.773 342.064 123.899 342.078 124.053 342.106V340.44C122.807 340.44 121.897 340.832 121.393 341.616ZM132.697 344.304C132.697 341.966 131.101 340.44 128.917 340.44C126.691 340.44 125.053 342.036 125.053 344.262C125.053 346.488 126.677 348.098 129.183 348.098C130.471 348.098 131.521 347.678 132.193 346.88L131.255 345.802C130.723 346.348 130.065 346.614 129.225 346.614C127.923 346.614 127.013 345.914 126.803 344.822H132.669C132.683 344.654 132.697 344.444 132.697 344.304ZM128.917 341.84C130.065 341.84 130.891 342.582 131.031 343.66H126.789C126.957 342.568 127.783 341.84 128.917 341.84Z" fill="#00A0C1"/>
<rect x="0.5" y="132.5" width="327" height="252" rx="10.5" stroke="#A9D6FF"/>
</g>
<defs>
<clipPath id="clip0">
<rect width="328" height="385" rx="10" fill="white"/>
</clipPath>
<clipPath id="clip1">
<rect width="32" height="26.353" fill="white" transform="translate(64 53)"/>
</clipPath>
<clipPath id="clip2">
<rect width="29" height="27" fill="white" transform="translate(65.5 53)"/>
</clipPath>
</defs>
</svg>
